<svg xmlns="http://www.w3.org/2000/svg" xmlns:xlink="http://www.w3.org/1999/xlink" version="1.1" x="0px" y="0px" viewBox="0 0 80 100" enable-background="new 0 0 80 80" xml:space="preserve"><g><g><path d="M21.6,71.3c0.9-0.5,1.8-1.1,2.8-1.5c2.2-1.1,4.5-2,6.8-3.1c1.2-0.5,2.3-1.2,3.5-1.8c0-0.1,0-0.2,0-0.3    c-0.6-0.2-1.2-0.4-1.9-0.6c0.2-1.1-0.7-2-1.2-3c-0.1-0.2-0.3-0.4-0.5-0.4c-1,0.1-2,0-2.9,0.4C25.9,62,23.8,63,21.6,64    c-1.5,0.7-3,1.5-4.5,2.2c-1.7,0.7-3.4,1.4-5.1,2.1c-1.2,0.5-2.4,1.1-3.7,1.6C8,70.1,7.5,70,7,69.9c0.8-1.3,2.8-1.5,2.5-3.5    c-0.9-0.1-1.7,0.2-2.5,0.7c-0.3,0.2-0.7,0.1-1.1,0.1c0-0.3-0.1-0.7-0.1-1C5.9,65.9,6,65.4,6,65c0.1-2.9,1.7-5.2,3.4-7.4    c0.8-1,1.6-2.1,2.5-3.2c0.1,0.5,0.2,0.8,0.4,1.1c0.1-0.1,0.2-0.2,0.2-0.2c-0.3-0.9-0.1-1.6,0.5-2.2c0.3-0.3,0.6-0.7,0.8-1    c0.4-0.5,0.8-1,0.4-1.8c-0.2-0.4,0.2-1.1,0.4-1.6c0.3-0.8,0.8-1.5,1.2-2.3c0.4-0.8,0.5-1.8,1.6-2.1c0.2-0.1,0.4-0.3,0.6-0.4    c-0.8-1.4,0.1-2.4,0.7-3.3c0.6-0.8,1.5-1.4,2.1-2.1c0.7-0.8,1.6-1.2,2.4-1.6c0.2-0.1,0.5,0.1,0.8,0.1c-0.1,0.3-0.1,0.6-0.3,0.8    c-1.4,1.3-2.8,2.6-4.2,3.9c-0.3,0.3-0.4,0.8-0.6,1.1c0.1,0.1,0.1,0.1,0.2,0.2c2.7-1.8,5.3-3.7,8.2-5.6c-0.4-0.2-0.7-0.3-0.9-0.4    c-1.2-0.5-1.5-1.4-0.8-2.5c0.1-0.2,0.5-0.3,0.7-0.4c0.1,0.3,0.2,0.5,0.2,0.8c0,0.3-0.1,0.6-0.1,0.9c0.4-0.1,0.8-0.1,1.2-0.2    c0.1,0,0.1-0.1,0.2-0.2c0.3,0,0.6,0,0.9-0.1c-0.1,0.3-0.1,0.6-0.2,0.9c-0.1,0.3-0.2,0.6-0.4,0.8c0.3,0.1,0.7,0.4,1,0.4    c0.4,0,0.8-0.2,1.1-0.4c0.5-0.3,0.7-0.7,0-1.1c-0.4-0.3-0.5-0.8-0.7-1.2c-0.1-0.1,0.2-0.4,0.3-0.6c0.2,0.1,0.5,0.2,0.6,0.4    c0.6,1.3,1.4,1.5,2.5,0.6c0.2-0.2,0.6-0.1,0.9-0.1c-0.1,0.3,0,0.8-0.2,0.9c-0.5,0.3-1,0.5-1.6,0.7c0,0.1,0,0.1,0,0.2    c0.6,1.8,1,1.9,2.5,0.5c0.2-0.2,0.6-0.1,0.9-0.2c0,0.3,0.1,0.7-0.1,0.9c-0.2,0.4-0.6,0.6-1,0.9c0,0.1,0.1,0.2,0.1,0.3    c0.3-0.1,0.6,0,0.8-0.2c1.8-1.6,3.2-3.4,3.2-6c0-1.1,0-2.3,0-3.4c0-0.2,0.2-0.5,0.4-0.7c0.2,0.2,0.6,0.3,0.6,0.5    c0.8,4.3-0.2,8-3.7,10.8c-1.7,1.4-3.6,2.7-5.4,4c-0.2,0.1-0.4,0.3-0.6,0.3c-2.2,0.3-3.5,2.2-5.4,3.1c-0.2,0.1-0.4,0.6-0.3,0.8    c0.2,0.7,0,1.2-0.4,1.7c-0.5,0.7-0.8,1.4-0.7,2.3c0.1,0.6-0.2,1.3-0.3,2c-0.2,0-0.5,0-0.8,0.1c0.4,0.8,0.3,1.4-0.4,2    c-0.3,0.3-0.1,1.1-0.1,1.7c0.1,0.5,0,0.7-0.5,1.1c-0.5,0.4-0.7,1.4-1,2.1c-0.1,0.4,0,0.8,0,1.2c-0.1,0-0.2-0.1-0.2-0.1    c-0.4,0.6-0.7,1.1-1.1,1.7c0.1,0.1,0.1,0.1,0.2,0.2c1.8-0.8,3.5-1.6,5.2-2.3c0-0.7-0.2-1.4,0-1.9c0.5-1.1,1.4-1.9,2.6-2.3    c1-0.3,1.4-1.7,0.7-2.5c-0.3-0.3-0.5-0.7-0.8-1c-0.2-0.4-0.4-0.7-0.7-1.2c-0.2,0-0.5,0.1-0.8,0.1c-0.1-0.3-0.2-0.7-0.4-1.1    c-0.3,0.2-0.6,0.4-0.9,0.6c-0.2,0.1-0.3,0.1-0.5,0.2c0-0.2-0.1-0.3-0.1-0.5c0.1-1.1,0.9-1,1.8-1.2c0-0.8,0-1.7,0-2.6    c0.1,0,0.1,0,0.2,0c0.1,0.2,0.3,0.5,0.4,0.7c0.3-0.2,0.6-0.3,0.9-0.5c0.1,0.6,0.1,1.2,0.2,1.8c0.2-0.3,0.4-0.5,0.7-0.9    c0.1,0.8,0.1,1.3,0.1,1.7c0.3,0.3,0.6,0.4,0.6,0.6c0.1,0.6,0.1,1.2,0.2,1.7c0.2,0.7,0.5,1.4,1,2c0-0.4,0-0.8,0-1.2    c0.1,0,0.2,0,0.2-0.1c0.2,0.5,0.3,1,0.5,1.5c0.1,0,0.2-0.1,0.3-0.1c-0.3-0.9-0.6-1.8-0.9-2.9c0.4,0,0.7,0.1,1,0.1    c0.6-1.9,1.2-3.9-0.4-5.8c1.1,0,1.8-0.2,2.4,0.4c0.1,0.1,0.7,0,0.9-0.1c0.3-0.2,0.4-0.7,0.8,0c0.1,0.2,0.8,0.2,1.2,0.2    c0.1,0,0.3-0.3,0.3-0.4c0-0.6,0-1.2,0-1.9c0.9,0.6,1,1.4,0.3,2.7c0.5-0.3,1-0.6,1.3-1c0.4-0.4,0.7-0.9,1.2-1.5    c0.2,0.4,0.4,0.6,0.5,0.9c0.3-0.2,0.5-0.3,0.8-0.5c-0.2-0.4-0.5-0.8-0.7-1.1c0.1-0.1,0.1-0.1,0.2-0.2c0.2,0.2,0.5,0.4,0.7,0.6    c1.5-0.9,1.6-0.9,2.4,0c0.8-0.6,1.5-1.2,2.3-1.9c0.1,0.1,0.1,0.3,0.4,0.6c0.6-0.9,1-1.7,1.6-2.6c1,0.1,1.4-0.4,1.8-1.6    c0.1-0.5,0.3-1.2,1.2-1.4c0.6-0.2,1.1-1.2,1.5-1.9c0.3-0.5,0.3-1.1,0.5-1.6c-0.4,0.1-0.7,0.1-1,0.1c-0.1-0.1-0.1-0.1-0.2-0.2    c0.8-0.6,1.9-1,1.8-2.3c-0.3,0.2-0.6,0.4-1.1,0.7c0.3-0.7,0.5-1.3,0.8-2c0.2,0.5,0.4,0.8,0.6,1.4c0.3-0.9,0.6-1.5,0.8-2.1    c0.1-0.6,0.1-1.2,0.4-1.7c0.1,0.1,0.1,0.2,0.2,0.3c0.4-0.5,0.7-1,1.1-1.4c-0.1-0.1-0.1-0.1-0.2-0.2c-0.2,0.3-0.4,0.6-0.6,1    c-0.3-0.4-0.4-0.5-0.6-0.7c-0.2,0.2-0.5,0.3-0.7,0.5c0,0-0.1-0.1-0.1-0.1c0.3-0.4,0.6-0.8,0.9-1.2c0.7,0.8,1,0,1.4-0.3    c0.9-0.5,1.7-1.1,2.6-1.5c0.8-0.4,1.5-0.7,2.2-1c-0.3-1.2-0.6-2.4-0.8-3.3c-1.4-0.2-2.9-0.4-4.3-0.7c-2.4-0.6-2.6-2.3-2-4.2    c0.1-0.5,0.4-0.9,0.7-1.3c0.2-0.2,0.5-0.4,0.7-0.5c0.1,0.1,0.2,0.1,0.2,0.2c-0.1,0.3-0.4,0.5-0.4,0.8c-0.2,0.9-0.6,1.9-0.6,2.8    c0,0.5,0.8,1.1,1.4,1.3c0.9,0.4,1.9,0.6,2.9,0.7c0.6,0.1,1.2-0.3,1.8-0.4c0,0,0,0.2,0.1,0.4c0.8-0.3,1.3-0.8,1.8-1.5    c0.7-1,0.6-2.2,1.2-3.2c0.2-0.3,0.5-0.5,0.6-0.8c0.1-0.7-0.1-1.2-0.8-1.5c-2.8-1.6-5.5-0.7-8.1,0.5c-1.4,0.7-2.7,1.5-4,2.3    c-0.5,0.3-0.9,0.8-1.4,1.1c-2.1,1.3-4.4,2.2-6.8,2.7c-4,0.9-7.6,2.8-10.3,5.9c-1.2,1.3-2.5,2.5-3.6,3.9c-1.4,1.7-2.7,3.5-4.1,5.2    c-0.6,0.8-1.2,1.5-1.8,2.3c-0.3,0.4-0.7,0.7-1.1,0.3c-0.1-0.2,0-0.7,0.1-1c1.2-1.6,2.4-3.1,3.7-4.7c1-1.3,2-2.7,3.1-3.9    c2.5-2.7,4.9-5.6,8.3-7.2c2.1-1,4.5-1.4,6.7-2.3c1.8-0.7,3.6-1.5,5.2-2.6c2.7-1.8,5.3-3.8,8.5-4.5c1.2-0.3,2.6-0.2,3.9-0.1    c1.5,0.1,2.4,1.1,3.2,2.3c0.3,0.4,0.7,0.8,1.1,1c0.7,0.4,1.5,0.7,2.2,1.2c2.2,1.5,2.8,4.6,1.4,6.9c-0.7,1-1.7,1.9-2.9,2.2    c-0.7,0.2-0.9-0.1-0.7-0.8c0.3-1.3,0.3-1.4-1.1-1.5c-0.4,0-0.9-0.1-1.5-0.2c0.4,1.1,1.4,0.8,2.2,1.1c-0.3,0.3-0.4,0.7-0.7,0.8    c-0.8,0.4-1.7,0.7-2.5,1c-2.2,0.7-4.3,1.6-5.7,3.6c-0.6,0.8-0.8,1.8-1.2,2.8c-0.3,0.7-0.7,1.3-0.9,2c-0.1,0.4-0.1,0.9-0.1,1.2    c-0.4,0.4-0.8,0.7-0.9,1c-0.6,2.3-2.2,3.9-3.4,5.9c-0.2,0.4-0.5,0.7-0.7,1.1c-0.3,0.3-0.4,1-1.1,0.6c0,0-0.3,0.3-0.4,0.5    c-0.5,0.5-0.8,1.2-1.7,1.3c-0.5,0-1.1,0.8-1.3,1.4c-0.2,0.5-0.3,1.3,0.5,1.6c0.5,0.2,0.6,1,1.4,0.8c0,0,0.2,0.5,0.4,0.9    c1.5-0.5,3.1-0.9,4.6-1.5c3.2-1.3,6.3-2.8,9.5-4.2c3.6-1.6,7.2-3.1,10.8-4.6c0.4-0.2,0.8-0.2,1.2-0.2c0.2,0,0.4,0.2,0.6,0.3    c-0.2,0.2-0.3,0.5-0.5,0.6c-1,0.5-2.1,0.8-3.1,1.3c-2.1,0.9-4.1,1.9-6.2,2.8c-1.8,0.8-3.7,1.5-5.5,2.2c-1.8,0.7-3.5,1.4-5.3,2.1    c-0.3,0.1-0.5,0.3-0.9,0.6c1.7,0.3,2.5,1.3,2.9,2.8c6.1-2.9,12.2-5.7,18.3-8.6c0.1,0,0.3,0.1,0.7,0.3c-0.6,0.4-1,0.8-1.5,1    c-2.6,1.2-5.1,2.4-7.7,3.6c-3,1.4-6.1,2.7-9.1,4.1c-0.5,0.2-0.9,0.6-1.2,1c6.8-2.8,13.2-6.3,20-9c0.1,0.1,0.1,0.3,0.2,0.4    c-0.7,0.4-1.4,0.8-2.2,1.2c-2.3,1.1-4.7,2.1-7,3.2c-3,1.4-5.9,2.8-8.9,4.2c-1,0.5-1.9,0.9-2.8,1.5c-0.3,0.2-0.2,0.9-0.4,1.5    c0.9-0.4,1.5-0.6,2.2-1c2.5-1.2,4.9-2.4,7.3-3.8c1.6-0.9,3-2,4.6-2.8c1.2-0.7,2.6-1.2,3.9-1.8c1.6-0.7,3.1-1.5,4.7-2.2    c0.4,1-0.5,1.3-1,1.6c-1,0.6-2,1-3.1,1.4c-2.7,1.1-5.2,2.6-7.7,4.1c-1.4,0.9-2.8,1.6-4.3,2.3c-1.9,1-3.8,1.9-5.7,2.8    c-2.6,1.3-5.1,2.5-7.7,3.8c-2.1,1-4.3,2-6.4,3c-3.3,1.5-6.6,3.1-9.9,4.6c-1.7,0.8-3.5,1.6-5.3,2.4c-0.3,0.1-0.6,0.4-0.9,0.6    C22.7,71.3,22.2,71.3,21.6,71.3z M26.4,43.4c-0.1-0.1-0.1-0.2-0.2-0.2c1.2-1.3,2.3-2.6,3.9-3.4c0.2-0.1,0.6-0.1,0.8,0    c1,0.5,1.7,0.1,2.5-0.3c-0.7-0.4-1.4-0.7-2.1-1c-0.3-0.1-0.8-0.3-1-0.2c-0.9,0.4-1.7,0.3-2.5-0.2c-0.2-0.1-0.8-0.1-1,0.1    c-0.7,0.6-1.2,1.4-1.9,2c-0.4,0.4-1,0.7-1.4,1.1c-0.9,0.7-1.8,1.5-2.8,2.3c-0.8,0.6-1.7,1.2-2.5,1.8c-0.1,0.1-0.1,0.2-0.1,0.3    c0.4,1-0.4,1.1-1.1,1.3c0.1,0.2,0.2,0.4,0.4,0.6c2.4-1.6,4.8-3.2,7.2-4.9c0.1,0.1,0.2,0.2,0.3,0.3c-2.2,2.7-5.4,4.4-7.6,7.1    c1-0.5,2-1,2.9-1.6c0.7-0.4,1.3-0.8,1.9-1.4c0.3-0.2,0.4-0.7,0.5-0.9c0,0.1,0.1,0.3,0.2,0.5c0.2,0,0.3-0.1,0.5-0.1    c-0.7-2,1.1-1.6,1.8-2.3c0.2,0.2,0.3,0.4,0.5,0.6c2.3-1.2,4.5-2.5,6.7-3.7c0-0.1,0-0.2-0.1-0.3c-0.6-0.1-1.3-0.3-1.8-0.1    c-0.8,0.3-1.1,1.5-2.2,1.6C27.5,42.6,27,43.1,26.4,43.4z M31.5,53.9c0.3,0.5,0.5,0.9,0.8,1.3c0.6,1.1,2.2,1.7,3.4,1.1    c0.7-0.3,1.4-0.7,2-1c0.2-0.1,0.6-0.3,0.6-0.5c0.2-1.2,1.1-1.6,2.1-2.1c0.8-0.3,0.8-0.9,0.2-1.5c-0.5-0.5-1.4-1-0.9-2.1    c-0.3,0.2-0.4,0.2-0.5,0.3c-0.5,1.1-0.5,1-1.5,0.3c-0.4-0.3-1.1-0.6-1.6-0.4c-1.3,0.5-2.4,0.8-3.4-0.1c-0.5,0.6-1,1.2-1.6,1.9    c0.3,0.7,0.8,1.6,1.3,2.6C32,53.7,31.8,53.8,31.5,53.9z M39.5,54.2c0.5,0.9,1,0.5,1.5,0.4c1.3-0.5,2.4-1.7,3.9-1.4    c1.4,0.2,2.7,0.7,4,1.2c0.8,0.3,1.5,0.9,2.3,1.3c0.5-0.7,0.5-1.3,0-1.7c-0.6-0.5-1.2-0.9-1.9-1.1c-0.9-0.3-1.9-0.5-2.9-0.8    c0.2-0.3,0.2-0.4,0.3-0.4c1.7-0.2,3.4-0.9,5.1,0c0.3,0.2,0.8,0,1.4,0c-0.7-1-1.3-1.6-2.3-1.7c-1.4-0.3-2.7,0.1-4.1,0.3    c-0.5,0.1-1.1,0-1.6-0.1c-0.4-0.1-0.7-0.3-1.1-0.5c-0.4-0.2-0.9-0.3-1-0.6c-0.3-0.6-0.4-1.3-0.6-1.9c-0.6-0.3-1.2-0.6-1.9-0.9    c0.4-0.1,0.6-0.2,0.9-0.3c-0.2-0.2-0.4-0.4-0.6-0.5c-0.7,0.4-1,0.7-0.3,1.5c0.3,0.3,0.3,0.9,0.4,1.5c-0.7-0.4-1.2-0.7-1.8-1.1    c0.3,1.3,1.6,1.3,2.6,2c-0.6,0-1,0-1.6,0c0.6,0.4,1.3,0.6,1.4,1c0.2,0.6,0.5,0.7,0.9,0.9c0.4,0.2,0.6,0.7,0.8,1.1    c0,0.1-0.5,0.4-0.8,0.6C41.4,53.3,40.5,53.7,39.5,54.2z M9.7,62.6c0.4,0.3,0.8,0.5,1.1-0.1c0.6-1.1,1.1-2.2,1.6-3.4    c0.5-1.2,1-2.4,2.1-3.1c0.1,0,0.1-0.2,0.1-0.3c-0.2,0-0.4,0-0.7,0c0.2-0.3,0.3-0.6,0.3-0.7c0.8-0.2,1.5-0.4,2.2-0.6    c0,0.1,0.2,0.3,0.4,0.7c0.8-1,1.5-2,2.3-3c-0.4,0.2-0.6,0.3-0.8,0.4c-0.1-0.1-0.2-0.2-0.2-0.3c0.8-0.8,1.5-1.5,2.3-2.3    c-0.2-0.1-0.4-0.1-0.6,0c-1.4,0.8-2.6,2.1-4.2,2.4c-0.3,0.1-0.5,0.3-0.7,0.6c-1.1,1.6-2.2,3.2-3.4,4.7c-0.5,0.6-0.9,1.4-1.8,1.1    c-0.1,0.4-0.2,0.8-0.3,1.2c-0.1,0.3-0.2,0.7-0.3,1.1c0,0.1,0.1,0.3,0.2,0.3c0.1,0,0.4-0.1,0.3-0.2c-0.1-0.7,0.6-1,0.9-1.4    c0.3-0.6,0.6-0.4,0.8-0.1C10.9,60.6,10.3,61.6,9.7,62.6z M37.1,56.7c0.9,0.7,1.8,1.3,2.7,1.9c0.1,0.1,0.4,0.1,0.5,0    c2.1-0.9,4.2-1.8,6.3-2.7c0.2-0.1,0.4-0.5,0.4-0.7c0-0.2-0.3-0.5-0.5-0.6c-0.5-0.1-1-0.3-1.4-0.2c-1.2,0.2-2.5,0.6-3.7,1    c-0.5,0.1-1,0.4-1.4,0.3C38.7,55.5,38,56.4,37.1,56.7z M32.7,59.2c0.3-0.7,0.6-0.9,1.3-0.8c1.6,0.2,2.9,0.9,4,2    c0.2,0.2,0.5,0.2,0.8,0.3c0.1-0.3,0.3-0.8,0.1-1c-0.4-0.6-0.9-1.2-1.5-1.5c-1.2-0.7-2.5-1-3.9-1c-0.8,0-1.8,0-1.7-1.3    c0,0-0.1-0.1-0.2-0.2c-0.3,0.2-0.5,0.4-0.8,0.7c0.7,0.5,1.3,1,2,1.5c0,0.1-0.1,0.2-0.1,0.3c-0.5-0.2-1-0.5-1.6-0.7    c0,0.2,0.1,0.4,0.1,0.7c-0.1,0.1-0.1,0.1-0.2,0.2c-0.4-0.4-0.8-0.8-1.2-1.2c0.3,0.8,0.3,1.7,1.4,1.8c1,0.2,1.8,0.8,2.3,1.8    c0.4,0.8,0.7,1.5,1.2,2.2c0.2,0.3,0.7,0.6,1,0.6c0.2,0,0.5-0.6,0.6-1c0.1-0.3-0.1-0.7-0.2-1C35.3,60.4,34.2,59.6,32.7,59.2z     M22.3,49.4c-0.7,0.6-1.5,1.1-2.1,1.7c-0.3,0.3-0.7,0.7-0.7,1.2c-0.2,1.2-0.3,2.4-1.1,3.4c-0.4,0.5-0.6,1-0.9,1.4    c0.4,0.2,0.7,0.3,1.2,0.5c0.1-0.2,0.4-0.4,0.4-0.7c-0.1-1.7,0.6-3.1,1.7-4.3c0.5-0.6,0.9-1.2,1.3-1.9c0.3-0.4,0.7-0.8,0.9-1.2    c0.1-0.2-0.2-0.7-0.4-0.8c-0.4,0-0.9,0.1-1.3,0.2c0,0.1,0,0.1,0,0.2C21.6,49.2,21.8,49.3,22.3,49.4z M14,63.6    c0-0.1,0.2-0.4,0.2-0.5c-0.4-1.2,0.3-2,0.8-2.9c0.5-0.8,0.8-1.6,0.5-2.5c-0.2-0.7,0-1.2,0.9-1.5c-0.3-0.3-0.5-0.6-0.7-0.9    c-0.2,0.2-0.3,0.5-0.5,0.7c-0.8,1-0.2,2.5-1.1,3.5c-0.6,0.7-0.7,1.7-1.1,2.5c-0.2,0.5-0.5,1-0.6,1.5c0,0.1,0.3,0.3,0.5,0.3    C13.1,63.8,13.5,63.7,14,63.6z M27.8,57.3c0.4,0.4,0.6,0.7,0.8,1c-0.2,0.1-0.5,0.4-0.6,0.4c-1.3-0.3-2.1,0.6-3,1.3    c-0.2,0.1-0.2,0.5-0.1,0.7c0.1,0.2,0.5,0.3,0.7,0.2c0.3,0,0.6-0.2,0.8-0.3c1.1-0.7,2.2-1.3,3.2-2c-0.5-0.7-1.1-1.6-1.7-2.5    c-0.1,0-0.1,0-0.2,0.1C27.8,56.7,27.8,57.1,27.8,57.3z M49.1,57.1C49,57,49,56.8,48.9,56.7c-2,0.9-3.9,1.9-5.9,2.8    c0,0.1,0.1,0.2,0.1,0.3C45.1,58.9,47.1,58,49.1,57.1z M40.7,61.9c0-0.1,0-0.2,0-0.3c-0.3,0.1-0.5,0.2-0.8,0.2    c-0.5,0.1-1.2,0.4-1.5,0.2c-1-0.5-0.8,0-0.7,0.6c0,0.2,0.1,0.5,0.1,0.7C38.8,62.8,39.8,62.4,40.7,61.9z M14,57.3    c-1.1,0.5-0.6,1.4-0.8,2.1c-0.3,0.7-0.8,1.3-1.3,2.1C12.9,61.2,13.9,59.2,14,57.3z M9.4,62.6c-0.1,0-0.2,0-0.3,0.1    c-0.1,0.7-0.2,1.4-0.3,2.1c0.9,0.1,0.9-0.6,1-1C9.9,63.4,9.6,63,9.4,62.6z M16.7,62.5c-0.1,0-0.2,0-0.3-0.1    c0.1,0.4,0.3,0.9,0.4,1.3c0.5-0.6,0.8-1,1-1.3c-0.2-0.4-0.3-0.8-0.4-1C17.3,61.7,17,62.1,16.7,62.5z M7.8,64.1    c0.4-0.7,0.7-1.2,1-1.8c0.1-0.1-0.1-0.4-0.1-0.6c-0.2,0.1-0.4,0.2-0.5,0.3c-0.3,0.5-0.4,1.1-0.6,1.6C7.5,63.7,7.6,63.8,7.8,64.1z     M13.8,64.7c-0.6,0-1.5,1.9-1.3,2.5C13,66.3,13.4,65.5,13.8,64.7z M40.8,59.4c0,0.1,0.1,0.2,0.1,0.2c1.2-0.5,2.4-1.1,3.6-1.6    c0-0.1-0.1-0.2-0.1-0.3C43.1,58.3,42,58.8,40.8,59.4z M18,59.2c0.2,0,0.3,0.1,0.5,0.1c0.1-0.4,0.3-0.8,0.4-1.2    c0,0-0.4-0.2-0.6-0.2C18.2,58.3,18.1,58.8,18,59.2z"/><path d="M60.4,16.7c0,1.3-1.5,2.5-3.2,2.5c-1.5,0-2.7-1.4-2.4-2.9c0.2-1.2,1.9-2.2,3.2-2.1C59.7,14.5,60.4,15.2,60.4,16.7z     M59.3,16.4c0-0.8-0.5-1.3-1.2-1.4c-1,0-2.3,1.1-2.2,1.9c0,0.7,0.8,1.4,1.5,1.4C58.4,18.4,59.3,17.5,59.3,16.4z"/><path d="M32,63.4c-1.8,0.7-3.5,1.3-5.3,2c-0.5,0.2-0.9,0.4-1.4,0.4c-0.3,0-0.6-0.1-0.9-0.2c0-0.1,0.1-0.2,0.1-0.2    c2.2-0.8,4.4-1.7,6.7-2.4c0.2-0.1,0.5,0.1,0.8,0.2C32,63.1,32,63.2,32,63.4z"/><path d="M27.7,67.4c-0.2-0.4-0.4-0.8-0.6-1.1c1.5-0.7,2.9-1.3,4.4-1.9c0.2-0.1,0.5,0,0.8,0c-0.1,0.2-0.3,0.5-0.5,0.6    c-1,0.7-2,1.4-3.1,2C28.4,67.1,28.1,67.2,27.7,67.4z"/><path d="M51,25.6c-0.2-0.3-0.3-0.5-0.5-0.8c-0.1-0.1-0.1-0.3-0.1-0.5c0.2,0,0.3,0,0.4,0.1c0.4,0.3,0.7,0.7,1.1,1.1    c0.1,0,0.1-0.1,0.2-0.1c0,0.2,0.1,0.5,0.1,0.7c-0.1,0.2-0.3,0.4-0.4,0.6c-0.2-0.2-0.4-0.3-0.6-0.6C51.2,26,51.1,25.8,51,25.6    L51,25.6z"/><path d="M42.3,41.9c-0.2,1.9-0.4,2.2-2,2.1C41,43.2,41.5,42.6,42.3,41.9z"/><path d="M47.5,25.3c0-1.5,0.7-2.3,1.8-2.2C48.7,23.9,48.1,24.6,47.5,25.3z"/><path d="M20,71.1c-0.1-0.4-0.2-0.8-0.2-1.2c0-0.2,0.3-0.5,0.5-0.7c0.1,0.2,0.3,0.4,0.4,0.6C21.1,70.5,20.9,71,20,71.1z"/><path d="M51,25.5c-0.1,0.2-0.2,0.5-0.3,0.6c-0.4,0.1-0.8,0.3-1.1,0.3c-0.2,0-0.5,0-0.7-0.1c-0.1-0.1-0.1-0.5-0.1-0.5    c0.2-0.1,0.5-0.2,0.7-0.2C50,25.9,50.5,25.9,51,25.5C51,25.6,51,25.5,51,25.5z"/><path d="M24,68.9c0-0.4,0.1-0.8,0.2-1.4c0.5,0.4,0.8,0.7,1.1,1c-0.4,0.2-0.7,0.4-1.1,0.6C24.2,69,24.1,68.9,24,68.9z"/><path d="M45.2,41.2c0,0.5,0.1,0.9,0,1.4c0,0.2-0.2,0.3-0.4,0.4c-0.1,0-0.3-0.1-0.5-0.1c0.1-0.2,0.1-0.4,0.2-0.5    c0.1-0.2,0.1-0.4,0.2-0.7c0.1-0.2,0.1-0.4,0.2-0.5C45,41.2,45.1,41.2,45.2,41.2z"/><path d="M53.2,27c-0.4,0.5-0.9,1-1.3,1.5C51.4,28.1,51.4,28.1,53.2,27z"/><path d="M22.8,69.7c0-0.3-0.1-0.5-0.1-0.7c0-0.2-0.1-0.5-0.1-0.7c0.1,0,0.3-0.1,0.3,0c0.1,0.2,0.2,0.5,0.2,0.7c0.1,0,0.3,0,0.5,0    c0,0.1,0.1,0.1,0.1,0.2C23.4,69.3,23.1,69.5,22.8,69.7z"/><path d="M33,50.3c-0.2,0.4-0.3,0.9-0.5,1.3c-0.2-0.1-0.3-0.1-0.5-0.2c0.2-0.4,0.5-0.9,0.7-1.3C32.8,50.1,32.9,50.2,33,50.3z"/><path d="M46.4,51.1c-0.4,0.1-0.9,0.2-1.3,0.2c-0.5-0.1-1.1-0.2-1.2-1c0.8,0.2,1.6,0.4,2.3,0.5C46.3,50.9,46.4,51,46.4,51.1z"/><path d="M56.5,16.9c0.6-0.5,0.9-1,1.2-1.1c0.3,0,0.9,0.6,0.9,0.9c-0.1,0.4-0.5,0.8-0.9,1C57.5,17.8,57.1,17.3,56.5,16.9z"/></g></g><text x="0" y="95" fill="#000000" font-size="5px" font-weight="bold" font-family="'Helvetica Neue', Helvetica, Arial-Unicode, Arial, Sans-serif">Created by Francesco Cesqo Stefanini</text><text x="0" y="100" fill="#000000" font-size="5px" font-weight="bold" font-family="'Helvetica Neue', Helvetica, Arial-Unicode, Arial, Sans-serif">from the Noun Project</text></svg>