<svg xmlns="http://www.w3.org/2000/svg" xmlns:xlink="http://www.w3.org/1999/xlink" version="1.1" x="0px" y="0px" viewBox="0 0 100 125" enable-background="new 0 0 100 100" xml:space="preserve"><path fill-rule="evenodd" clip-rule="evenodd" d="M39.898,40.27c-8.008-1.694-16-1.633-24.108-2.477  c0.738-0.663,1.458-0.686,2.139-0.755c5.474-0.557,10.951-0.174,16.409,0.145c8.019,0.469,15.983,0.304,23.918-1.007  c1.347-0.223,2.723-0.405,4.082-0.376c1.614,0.035,2.878-0.566,4.087-1.536c1.149-0.922,2.049-2.054,2.979-3.173  c4.198-5.058,9.554-7.601,16.162-7.428c0.943,0.024,1.824,0.354,2.704,0.539c0.268-0.445-0.32-0.724-0.094-1.162  c0.614,0.543,1.208,1.07,1.899,1.681c0-0.455,0-0.781,0-1.045c0.926-0.225,0.587,2.003,2.057,0.912  c-0.28,1.683,0.831,2.893,1.586,4.229c1.076,1.903,2.09,3.824,2.654,5.953c0.408,1.54,0.457,3.029-0.4,4.461  c-0.704,1.178-0.796,2.356-0.118,3.639c0.588,1.115,0.972,2.335,1.528,3.716c-1.505-0.28-2.798-0.504-4.083-0.768  c-0.642-0.132-1.056-0.026-1.246,0.687c-0.153,0.573-0.439,1.111-0.651,1.67C87.733,57.856,80.85,64.25,71.245,67.841  c-0.576,0.215-0.891,0.628-1.267,1.025c-0.351,0.372-0.705,0.741-1.194,1.255c1.814,0.215,3.51,0.637,5.156,1.254  c0.529,0.199,1.078-0.171,1.602-0.344c2.812-0.923,6.292,0.632,7.733,3.722c-1.399-1.437-2.749-2.353-4.419-2.747  c1.896,1.167,3.248,2.615,2.951,5.063c-0.586-2.728-2.662-3.757-5.206-4.672c1.077,1.75,2.614,3.204,1.054,5.478  c0.044-2.472-0.862-4.256-2.715-5.281c-2.095-1.157-3.797,0.297-5.695,1.545c0.574-1.563,1.816-2.034,2.98-2.84  c-1.197-0.528-2.297-0.275-3.361-0.316c-0.257-0.011-0.514,0.002-0.77-0.018c-0.421-0.03-0.976,0.092-1.19-0.301  c-0.244-0.44,0.363-0.681,0.529-1.049c0.134-0.298,0.348-0.562,0.646-1.03c-2.612,0.057-5.022-0.006-7.412-0.424  c-2.455-0.43-4.853-1.063-7.093-2.142c-1.024-0.493-1.664-0.339-2.419,0.442c-1.884,1.951-1.862,1.602,0.502,2.686  c1.044,0.479,2.172,0.406,3.284,0.371c3.035-0.096,5.328,1.852,5.868,5.284c-1.036-1.949-2.428-3.04-4.378-3.761  c0.404,0.865,0.994,1.506,1.034,2.336c0.037,0.763,0.258,1.59-0.733,2.471c0.065-1.818,0.06-3.378-1.692-4.12  c-0.414,0.941-0.443,2.03-1.366,2.854c-0.044-2.125-1.268-3.286-2.961-3.997c-1.952-0.818-3.215,0.362-4.502,2.046  c-0.194-2.522,1.686-2.646,2.992-3.334c-2.47-1.013-2.47-1.013-0.697-3.015c1.763-1.991,1.783-2.015-0.248-3.636  c-1.503-1.199-3.115-2.264-4.589-3.496c-1.512-1.265-3.195-1.508-5.049-1.233C26.704,59.678,14.69,60.073,2.676,60.45  c-0.162,0.006-0.325-0.025-0.752-0.062c0.702-0.733,1.237-1.368,1.848-1.919c1.684-1.519,3.382-3.021,5.111-4.486  c0.55-0.468,0.5-0.725-0.047-1.136c-1.224-0.915-2.407-1.883-3.682-2.926c2.224,0.116,4.451,0.192,6.672,0.354  c7.36,0.535,14.533,2.136,21.691,3.833c1.701,0.403,3.44,0.648,5.163,0.955c0.723,0.129,1.39,0.368,2.042,0.717  c2.502,1.339,4.701,3.104,6.971,4.784c5.106,3.775,10.734,6.35,17.222,5.947c8.673-0.538,15.776-3.943,19.958-12.04  c1.137-2.202,2.213-4.437,3.301-6.664c0.4-0.822,0.843-1.514,1.938-1.197c0.403,0.116,0.63-0.174,0.862-0.427  c0.867-0.946,1.719-1.908,2.608-2.831c0.398-0.413,0.404-0.724-0.091-0.999c-1.526-0.85-1.727-2.087-1.371-3.712  c0.438-1.993-0.617-3.102-2.655-3.085c-0.3,0.003-0.599,0.034-0.896,0.058c-2.454,0.2-2.488,0.211-3.236-2.042  c-0.334-1.006-0.886-1.491-1.971-1.383c-0.809,0.082-1.64,0.039-2.396,0.367c-0.871,0.379-1.676,0.616-2.48-0.161  c-0.447-0.433-0.896-0.061-1.268,0.199c-1.138,0.795-2.353,1.405-3.74,1.585c-0.557,0.072-0.776,0.451-1.031,0.852  c-1.427,2.234-2.835,4.454-5.345,5.719c-0.76,0.384-1.278,1.238-1.915,1.867c-1.041,1.027-1.465,0.923-1.869-0.506  c-0.204-0.725-0.377-1.326-1.145-0.429c-2.727,3.186-6.411,4.569-10.377,5.035c-8.736,1.025-17.313-0.074-25.74-2.485  c-0.194-0.056-0.37-0.174-0.608-0.289c1.473-0.425,4.587-0.34,7.479,0.187c5.384,0.98,10.759,1.951,16.271,1.988  c3.624,0.025,6.523-1.449,9.168-3.692c0.272-0.232,0.629-0.435,0.682-0.97c-0.507,0.227-0.966,0.413-1.407,0.633  c-2.03,1.011-4.171,1.435-6.445,1.405c-6.03-0.079-12.071,0.033-18.082-0.555c-6.113-0.598-11.975-2.299-17.742-4.441  c1.012-0.388,2.014-0.222,2.996,0.055c6.365,1.789,12.886,2.108,19.443,2.073C38.431,40.62,39.084,40.69,39.898,40.27z"/><path fill-rule="evenodd" clip-rule="evenodd" d="M41.184,49.954c-1.165,0.942-2.414,1.047-3.968,0.998  c1.21,1.027,2.43,1.676,3.324,3.103c-7.427-1.854-14.265-4.292-20.042-9.099C27.118,47.582,34.103,48.671,41.184,49.954z"/><path fill-rule="evenodd" clip-rule="evenodd" d="M75.328,41.274c0.084-0.938-0.03-1.892,0.362-2.779  c0.142-0.321,0.354-0.634,0.725-0.64c0.404-0.007,0.369,0.43,0.456,0.677c0.683,1.946,1.899,3.495,3.405,4.875  c1.099,1.007,2.113,2.106,3.146,3.182c0.444,0.462,0.822,0.983,1.023,1.607c0.358,1.117-0.045,1.704-1.197,1.543  c-2.274-0.318-4.411-1.082-6.129-2.65C75.416,45.533,75.444,43.36,75.328,41.274z"/><path fill-rule="evenodd" clip-rule="evenodd" d="M80.332,35.746c1.612-0.255,3.008,0.249,4.356,0.889  c0.563,0.266,0.979,0.362,1.619,0.042c1.389-0.696,3.164,0.394,2.972,1.849c-0.126,0.939,0.246,1.402,0.831,1.914  c0.511,0.447,0.988,0.931,1.623,1.535c-1.472-0.026-0.543,1.072-1.051,1.606c-0.945-0.529-1.163-1.55-1.519-2.446  c-0.262-0.663-0.386-1.092-1.311-0.697c-1.004,0.429-2.104,0.021-2.449-1.002c-0.412-1.218-1.319-1.701-2.28-2.227  C82.203,36.703,81.264,36.23,80.332,35.746z M88.355,38.083c-0.029-0.44-0.256-0.746-0.705-0.72  c-0.521,0.031-0.889,0.329-0.838,0.898c0.039,0.444,0.373,0.648,0.801,0.647C88.146,38.907,88.351,38.579,88.355,38.083z"/><text x="0" y="115" fill="#000000" font-size="5px" font-weight="bold" font-family="'Helvetica Neue', Helvetica, Arial-Unicode, Arial, Sans-serif">Created by Ealancheliyan s</text><text x="0" y="120" fill="#000000" font-size="5px" font-weight="bold" font-family="'Helvetica Neue', Helvetica, Arial-Unicode, Arial, Sans-serif">from the Noun Project</text></svg>