<svg xmlns="http://www.w3.org/2000/svg" xmlns:xlink="http://www.w3.org/1999/xlink" version="1.1" x="0px" y="0px" viewBox="0 0 100 125" enable-background="new 0 0 100 100" xml:space="preserve"><g><path fill="#000000" d="M17.316,47.87c-0.808,0.849-0.776,2.192,0.072,3.001c0.85,0.811,2.192,0.778,3.002-0.069   c0.81-0.851,0.775-2.193-0.074-3.003C19.47,46.991,18.128,47.02,17.316,47.87z"/><path fill="#000000" d="M86.255,54.452c9.062-1.031,8.744-9.792,8.744-9.792s-9.926-4.306-17.368,4.169   c-5.78-4.778-16.089-8.208-16.089-8.208l3.723-2.433c0,0-15.86-9.339-23.317-7.575c-3.741,2.625-5.091,3.608-7.719,6.851   C25.938,37.018,10.973,42.976,5,52.331c1.729,3.104,9.754,8.975,14.983,10.771c0.254,0.201,0.79,0.503,2.073,0.933   c15.9,8.123,26.148,5.841,34.445,2.69c1.797,2.583,4.441,2.627,4.441,2.627c2.964-1.142,10.075-7.495,10.075-7.495   s-0.688-0.482-1.24-0.866c2.9-1.429,5.175-2.696,6.841-3.71c6.547,13.649,16.255,6.733,16.255,6.733S91.618,57.735,86.255,54.452z    M42.531,32.458c9.867,0.354,18.976,5.954,18.976,5.954s-1.102,1.174-1.796,1.704c-6.277-1.856-14.592-4.538-22.232-3.18   c0.004-0.004,0.008-0.009,0.013-0.014c-0.166,0.03-0.332,0.058-0.498,0.092C38.438,35.479,40.338,33.747,42.531,32.458z    M22.792,42.056c0.006,0.014,0.014,0.034,0.021,0.05c-0.009-0.015-0.02-0.032-0.029-0.047   C22.787,42.058,22.789,42.057,22.792,42.056z M21.163,61.486c-4.028-1.299-8.733-4.009-12.65-8.152l5.506,0.661l-6.331-2.22   c1.287-1.565,5.4-7.695,14.626-9.845c0.344,0.745,0.887,1.842,1.396,3.124C24.45,48.506,24.808,54.523,21.163,61.486z    M60.889,67.679c-1.447-0.123-3.537-2.572-3.537-2.572c2.516-0.905,7.225-2.813,10.108-4.285c0.247,0.235,1.964,1.399,1.964,1.399   S63.117,66.824,60.889,67.679z M78.685,57.171c-0.541-0.69-1.082-1.459-1.618-2.324c-2.786,1.8-7.835,4.688-15.783,7.948   c-9.361,3.839-17.535,8.407-38.162-0.589c0.646-1.342,5.979-13.01-0.3-20.161C51.069,31.354,75.4,49.15,77.733,50.937   c2.537-1.934,7.941-5.401,13.54-4.963c0.057,0.004,0.113,0.007,0.17,0.012c0.159,0.015,0.317,0.031,0.477,0.052   c0.315,0.04,0.631,0.089,0.943,0.157c-0.18,2.488-3.271,7.01-11.438,7.051c3.206,1.46,7.043,5.114,8.52,9.706   C87.804,63.999,82.737,63.452,78.685,57.171z"/><path fill="#000000" d="M71.93,48.818c-0.75-0.43-1.717-0.341-2.365,0.291c-0.639,0.621-0.758,1.567-0.372,2.319   c-0.495-0.002-0.993,0.177-1.378,0.552c-0.396,0.388-0.595,0.898-0.598,1.413c-0.403-0.033-0.8-0.204-1.105-0.519   c-0.184-0.187-0.312-0.405-0.394-0.634c0.028,0.002,0.056,0,0.08,0.005c-0.029-0.017-0.061-0.028-0.089-0.041   c-0.205-0.619-0.064-1.326,0.432-1.813c0.434-0.418,1.023-0.57,1.573-0.461c-0.75-0.431-1.719-0.343-2.368,0.291   c-0.054,0.053-0.097,0.113-0.145,0.172c-0.311-0.074-0.607-0.224-0.848-0.471c-0.676-0.692-0.66-1.806,0.032-2.481   c0.431-0.42,1.021-0.572,1.569-0.462c-0.747-0.432-1.715-0.345-2.365,0.289c-0.559,0.542-0.72,1.333-0.497,2.028   c-0.603-0.11-1.244,0.059-1.721,0.522c-0.224,0.218-0.378,0.478-0.475,0.754c-0.271-0.085-0.522-0.233-0.731-0.448   c-0.677-0.695-0.66-1.806,0.034-2.483c0.43-0.418,1.02-0.571,1.569-0.465c-0.75-0.428-1.719-0.34-2.368,0.294   c-0.358,0.353-0.552,0.81-0.585,1.276c-0.365-0.058-0.715-0.216-0.99-0.5c-0.675-0.692-0.663-1.804,0.03-2.48   c0.43-0.418,1.021-0.571,1.571-0.464c-0.749-0.431-1.718-0.341-2.369,0.293c-0.518,0.504-0.69,1.224-0.535,1.878   c-0.253-0.061-0.515-0.074-0.77-0.037c-0.246-0.085-0.479-0.223-0.673-0.423c-0.674-0.693-0.659-1.804,0.034-2.48   c0.431-0.419,1.022-0.572,1.568-0.462c-0.747-0.432-1.718-0.342-2.363,0.291c-0.394,0.38-0.59,0.883-0.599,1.388   c-0.634-0.148-1.326,0.012-1.828,0.502c-0.365,0.354-0.557,0.816-0.587,1.285c-0.512,0.05-1.04-0.113-1.426-0.513   c-0.677-0.692-0.663-1.805,0.03-2.479c0.432-0.42,1.022-0.573,1.572-0.466c-0.75-0.427-1.717-0.343-2.368,0.293   c-0.468,0.455-0.654,1.086-0.576,1.687c-0.592-0.099-1.227,0.069-1.695,0.525c-0.223,0.218-0.378,0.479-0.476,0.755   c-0.269-0.083-0.517-0.233-0.73-0.447c-0.675-0.695-0.662-1.805,0.033-2.481c0.429-0.419,1.023-0.575,1.567-0.462   c-0.746-0.433-1.714-0.344-2.364,0.29c-0.549,0.535-0.713,1.312-0.501,1.998c-0.571-0.069-1.168,0.103-1.613,0.537   c-0.072,0.07-0.132,0.151-0.193,0.23c-0.339-0.066-0.664-0.219-0.925-0.486c-0.676-0.695-0.66-1.807,0.033-2.48   c0.43-0.421,1.02-0.573,1.569-0.464c-0.748-0.43-1.716-0.343-2.365,0.292c-0.468,0.456-0.655,1.084-0.576,1.685   c-0.596-0.1-1.227,0.071-1.696,0.526c-0.225,0.218-0.379,0.479-0.476,0.756c-0.269-0.084-0.52-0.233-0.73-0.449   c-0.677-0.694-0.662-1.806,0.03-2.481c0.431-0.419,1.022-0.572,1.571-0.463c-0.749-0.431-1.719-0.343-2.365,0.29   c-0.469,0.458-0.656,1.087-0.576,1.688c-0.596-0.1-1.227,0.07-1.696,0.525c-0.152,0.149-0.27,0.324-0.363,0.505   c-0.133-0.009-0.265-0.032-0.391-0.069c-0.1-0.051-0.201-0.094-0.306-0.127c-0.165-0.084-0.323-0.186-0.459-0.327   c-0.678-0.694-0.663-1.806,0.03-2.481c0.432-0.42,1.02-0.572,1.57-0.463c-0.749-0.431-1.718-0.342-2.367,0.291   c-0.222,0.216-0.375,0.474-0.474,0.746c-0.732-0.369-1.641-0.265-2.262,0.341c-0.782,0.761-0.798,2.015-0.036,2.798   c0.397,0.407,0.924,0.604,1.45,0.594c-0.116,0.613,0.054,1.274,0.522,1.756c0.026,0.024,0.055,0.045,0.081,0.07   c-0.521-0.021-1.045,0.161-1.449,0.553c-0.288,0.282-0.472,0.631-0.55,0.997c-0.358-0.06-0.702-0.214-0.973-0.493   c-0.676-0.693-0.662-1.805,0.031-2.48c0.431-0.419,1.022-0.576,1.571-0.465c-0.75-0.43-1.717-0.342-2.368,0.292   c-0.781,0.763-0.799,2.017-0.034,2.8c0.285,0.292,0.636,0.469,1.006,0.545c-0.319,0.084-0.625,0.245-0.881,0.494   c-0.782,0.762-0.798,2.017-0.033,2.8c0.365,0.376,0.842,0.565,1.328,0.584c-0.059,0.568,0.114,1.154,0.542,1.594   c0.63,0.647,1.594,0.762,2.351,0.357c-0.55,0.091-1.133-0.076-1.551-0.505c-0.43-0.444-0.577-1.058-0.448-1.618   c0.043-0.021,0.087-0.034,0.127-0.057c-0.037,0.007-0.075,0.002-0.112,0.005c0.08-0.297,0.229-0.58,0.466-0.811   c0.345-0.336,0.795-0.494,1.244-0.489c-0.222,0.68-0.08,1.453,0.453,2c0.632,0.647,1.595,0.764,2.354,0.356   c-0.55,0.093-1.133-0.074-1.549-0.502c-0.678-0.695-0.663-1.809,0.031-2.481c0.198-0.197,0.434-0.325,0.68-0.407   c0.379,0.27,0.833,0.383,1.278,0.35c-0.156,0.64,0.007,1.343,0.5,1.849c0.403,0.412,0.943,0.606,1.478,0.588   c-0.333,0.723-0.211,1.603,0.376,2.205c0.631,0.646,1.595,0.76,2.352,0.354c-0.55,0.092-1.134-0.075-1.549-0.503   c-0.679-0.692-0.665-1.806,0.03-2.48c0.298-0.291,0.673-0.444,1.056-0.48c0.169,0.041,0.343,0.064,0.517,0.062   c-0.119,0.613,0.054,1.273,0.523,1.754c0.355,0.364,0.812,0.553,1.281,0.583c-0.371,0.068-0.728,0.235-1.019,0.52   c-0.781,0.763-0.799,2.016-0.035,2.8c0.63,0.647,1.592,0.764,2.351,0.355c-0.547,0.093-1.129-0.072-1.55-0.504   c-0.676-0.693-0.661-1.805,0.033-2.481c0.244-0.238,0.541-0.38,0.849-0.446c0.091,0.294,0.241,0.572,0.47,0.808   c0.432,0.441,1.016,0.63,1.584,0.577c0.071,0.374,0.245,0.733,0.532,1.025c0.182,0.188,0.395,0.325,0.622,0.424   c-0.299,0.087-0.578,0.243-0.814,0.476c-0.781,0.762-0.797,2.017-0.033,2.8c0.629,0.648,1.592,0.761,2.35,0.357   c-0.549,0.091-1.135-0.076-1.552-0.506c-0.674-0.693-0.66-1.806,0.031-2.48c0.333-0.323,0.76-0.485,1.189-0.495   c0.09,0.286,0.239,0.558,0.462,0.786c0.434,0.443,1.019,0.631,1.59,0.577c0.091,0.287,0.241,0.559,0.463,0.789   c0.631,0.646,1.594,0.761,2.352,0.354c-0.551,0.093-1.134-0.073-1.55-0.502c-0.677-0.695-0.663-1.805,0.03-2.481   c0.337-0.328,0.769-0.486,1.202-0.491c0.033,0.448,0.209,0.891,0.55,1.239c0.394,0.404,0.915,0.599,1.437,0.592   c0.027,0.46,0.204,0.912,0.551,1.269c0.631,0.646,1.592,0.763,2.351,0.356c-0.55,0.093-1.131-0.075-1.549-0.504   c-0.36-0.369-0.519-0.856-0.487-1.334c0.016-0.011,0.032-0.016,0.049-0.022c-0.017,0.001-0.031-0.001-0.049,0.001   c0.03-0.412,0.198-0.815,0.517-1.126c0.33-0.32,0.753-0.483,1.179-0.494c0.03,0.453,0.208,0.901,0.551,1.256   c0.629,0.646,1.592,0.76,2.351,0.354c-0.548,0.092-1.134-0.072-1.551-0.501c-0.371-0.381-0.526-0.885-0.484-1.374   c0.029-0.017,0.058-0.025,0.086-0.039c-0.028,0.005-0.055,0.001-0.081,0.004c0.041-0.394,0.206-0.776,0.51-1.075   c0.42-0.406,0.989-0.556,1.524-0.465c0.005,0.49,0.188,0.978,0.558,1.357c0.632,0.645,1.594,0.761,2.354,0.354   c-0.55,0.092-1.134-0.073-1.552-0.501c-0.678-0.695-0.661-1.809,0.03-2.484c0.149-0.144,0.321-0.246,0.5-0.326   c0.177,0.026,0.358,0.023,0.54,0.001c-0.297,0.71-0.161,1.56,0.409,2.146c0.63,0.645,1.594,0.76,2.351,0.353   c-0.548,0.093-1.133-0.072-1.549-0.503c-0.677-0.693-0.663-1.807,0.03-2.479c0.261-0.254,0.577-0.399,0.908-0.458   c0.092,0.199,0.212,0.389,0.372,0.556c0.455,0.463,1.077,0.648,1.675,0.569c0.047,0.417,0.224,0.826,0.539,1.149   c0.631,0.647,1.594,0.764,2.354,0.356c-0.551,0.091-1.136-0.075-1.553-0.505c-0.678-0.692-0.662-1.804,0.032-2.481   c0.248-0.241,0.554-0.384,0.87-0.449c0.087,0.293,0.237,0.571,0.466,0.805c0.629,0.646,1.595,0.763,2.352,0.356   c-0.549,0.089-1.134-0.076-1.552-0.504c-0.677-0.694-0.66-1.806,0.031-2.482c0.223-0.216,0.49-0.358,0.766-0.434   c0.05,0.065,0.096,0.132,0.153,0.191c0.633,0.646,1.594,0.763,2.352,0.354c-0.551,0.092-1.133-0.072-1.551-0.504   c-0.677-0.691-0.662-1.804,0.031-2.48C70.792,48.861,71.383,48.711,71.93,48.818z M59.365,50.271   c0.397,0.408,0.923,0.604,1.447,0.593c-0.06,0.316-0.038,0.643,0.057,0.952c-0.569-0.069-1.166,0.103-1.611,0.537   c-0.224,0.219-0.377,0.478-0.476,0.754c-0.27-0.084-0.521-0.233-0.73-0.449c-0.675-0.693-0.662-1.804,0.031-2.48   c0.261-0.254,0.58-0.396,0.912-0.457C59.087,49.917,59.204,50.105,59.365,50.271z M55.148,54.437   c-0.677-0.692-0.659-1.806,0.035-2.48c0.415-0.406,0.979-0.558,1.515-0.469c0.014,0.478,0.192,0.951,0.553,1.32   c0.222,0.226,0.484,0.382,0.763,0.479c-0.466,0.02-0.925,0.197-1.285,0.548c-0.313,0.308-0.5,0.697-0.565,1.103   C55.793,54.888,55.433,54.726,55.148,54.437z M56.143,55.137c-0.003,0.034-0.01,0.069-0.01,0.104   c-0.098-0.031-0.197-0.053-0.303-0.069C55.936,55.169,56.039,55.157,56.143,55.137z M50.424,54.4   c-0.676-0.694-0.661-1.806,0.034-2.483c0.29-0.281,0.655-0.433,1.031-0.474c0.002,0.496,0.186,0.991,0.56,1.376   c0.227,0.231,0.497,0.394,0.784,0.487c-0.363,0.072-0.708,0.238-0.992,0.517c-0.302,0.295-0.487,0.663-0.561,1.049   C50.965,54.799,50.667,54.649,50.424,54.4z M51.253,55.122c-0.002,0.022-0.007,0.047-0.007,0.07   c-0.06-0.021-0.121-0.038-0.183-0.053C51.125,55.14,51.188,55.128,51.253,55.122z M48.642,57.346   c-0.242-0.084-0.482-0.209-0.682-0.398c-0.248-0.231-0.41-0.516-0.5-0.815c0.005-0.002,0.01-0.004,0.017-0.007   c-0.007,0-0.011,0-0.019,0c-0.188-0.617-0.055-1.312,0.418-1.814c0.348-0.369,0.809-0.56,1.278-0.577   c0.088,0.296,0.239,0.578,0.47,0.814c0.271,0.277,0.604,0.451,0.956,0.534c-0.493,0-0.983,0.181-1.365,0.553   C48.74,56.095,48.553,56.736,48.642,57.346z M46.493,55.999c-0.207-0.089-0.402-0.204-0.568-0.375   c-0.675-0.693-0.66-1.808,0.032-2.482c0.242-0.235,0.534-0.377,0.84-0.446c0.081,0.135,0.172,0.262,0.284,0.38   c0.252,0.259,0.563,0.429,0.887,0.517c-0.349,0.101-0.679,0.288-0.946,0.572C46.541,54.675,46.371,55.36,46.493,55.999z    M44.594,54.715c-0.02,0.003-0.037,0.003-0.054,0.005c-0.212-0.068-0.433-0.098-0.652-0.091c-0.247-0.088-0.479-0.226-0.674-0.426   c-0.677-0.691-0.663-1.805,0.034-2.48c0.284-0.28,0.646-0.43,1.018-0.475c0.092,0.245,0.234,0.475,0.429,0.674   c0.347,0.355,0.798,0.547,1.257,0.581c-0.288,0.088-0.559,0.242-0.79,0.466C44.677,53.438,44.489,54.097,44.594,54.715z    M49.087,53.446c-0.439-0.013-0.873-0.18-1.204-0.519c-0.678-0.696-0.664-1.807,0.029-2.483c0.246-0.238,0.543-0.379,0.851-0.446   c0.077,0.345,0.241,0.673,0.506,0.943c0.233,0.24,0.513,0.406,0.812,0.501c-0.15,0.083-0.292,0.181-0.421,0.305   C49.19,52.205,49.002,52.842,49.087,53.446z M49.113,53.59c-0.017-0.004-0.035-0.008-0.055-0.014   c0.017-0.003,0.033-0.005,0.047-0.012C49.108,53.574,49.113,53.581,49.113,53.59z M54.104,49.699   c0.059,0.39,0.234,0.765,0.534,1.071c0.228,0.232,0.496,0.396,0.786,0.491c-0.38,0.064-0.743,0.234-1.041,0.522   c-0.386,0.377-0.585,0.873-0.596,1.374c-0.342-0.064-0.676-0.218-0.938-0.487c-0.677-0.694-0.661-1.808,0.033-2.482   C53.223,49.857,53.662,49.699,54.104,49.699z M53.942,49.526c0.047-0.02,0.095-0.043,0.141-0.062   c0.002,0.035,0.006,0.07,0.009,0.104C54.043,49.553,53.992,49.539,53.942,49.526z M52.639,53.994   c0.326-0.318,0.75-0.482,1.174-0.494c0.062,0.396,0.237,0.777,0.539,1.084c0.31,0.32,0.702,0.51,1.111,0.57   c-0.466,0.019-0.927,0.197-1.287,0.548c-0.361,0.353-0.55,0.806-0.585,1.27c-0.363-0.056-0.713-0.216-0.985-0.498   C51.93,55.783,51.944,54.669,52.639,53.994z M56.385,51.334c0.108-0.02,0.216-0.048,0.32-0.084   c-0.006,0.072-0.012,0.145-0.01,0.214C56.596,51.412,56.489,51.369,56.385,51.334z M56.574,47.653   c0.093,0.271,0.238,0.526,0.451,0.744c0.479,0.494,1.155,0.675,1.786,0.553c0.005,0.175,0.036,0.35,0.09,0.52   c-0.576-0.071-1.168,0.101-1.613,0.536c-0.326,0.315-0.511,0.718-0.57,1.133c-0.465,0.008-0.931-0.158-1.278-0.516   c-0.678-0.695-0.661-1.807,0.03-2.485C55.779,47.838,56.175,47.68,56.574,47.653z M52.692,46.424   c0.293-0.289,0.664-0.442,1.043-0.48c0.038,0.443,0.214,0.876,0.547,1.22c0.232,0.239,0.514,0.405,0.812,0.5   c-0.146,0.084-0.292,0.182-0.42,0.306c-0.406,0.395-0.602,0.921-0.594,1.448c-0.508,0.045-1.036-0.116-1.422-0.513   C51.982,48.21,51.996,47.1,52.692,46.424z M51.301,47.587c-0.001,0.033-0.002,0.066-0.002,0.099   c-0.046-0.015-0.092-0.026-0.135-0.041C51.21,47.629,51.255,47.607,51.301,47.587z M51.311,47.82   c0.033,0.448,0.209,0.887,0.547,1.234c0.266,0.272,0.59,0.443,0.933,0.528c-0.256,0.093-0.498,0.232-0.705,0.435   c-0.351,0.344-0.538,0.784-0.581,1.236c-0.249-0.062-0.508-0.076-0.759-0.037c-0.248-0.086-0.478-0.225-0.675-0.424   c-0.674-0.693-0.659-1.803,0.033-2.481C50.441,47.984,50.876,47.825,51.311,47.82z M47.644,46.756   c0.267-0.263,0.601-0.407,0.947-0.462c0.084,0.321,0.241,0.628,0.488,0.881c0.266,0.271,0.59,0.442,0.934,0.526   c-0.256,0.095-0.497,0.234-0.706,0.437c-0.444,0.434-0.631,1.024-0.582,1.6c-0.071-0.011-0.141-0.017-0.212-0.019   c-0.333-0.067-0.648-0.218-0.901-0.479C46.934,48.545,46.948,47.434,47.644,46.756z M46.437,48.836   c0.096,0.198,0.212,0.387,0.374,0.551c0.243,0.251,0.536,0.419,0.849,0.513c-0.195,0.09-0.379,0.214-0.542,0.373   c-0.557,0.543-0.718,1.331-0.497,2.023c-0.413-0.03-0.813-0.202-1.126-0.521c-0.676-0.695-0.663-1.808,0.032-2.483   C45.787,49.041,46.108,48.896,46.437,48.836z M43.555,46.945c0.261-0.252,0.582-0.396,0.912-0.456   c0.093,0.197,0.21,0.386,0.372,0.55c0.396,0.407,0.923,0.604,1.446,0.594c-0.06,0.316-0.036,0.643,0.059,0.953   c-0.572-0.069-1.169,0.102-1.612,0.537c-0.225,0.219-0.38,0.478-0.477,0.754c-0.268-0.084-0.523-0.233-0.731-0.448   C42.848,48.735,42.863,47.621,43.555,46.945z M42.723,49.574c0.396,0.408,0.924,0.604,1.448,0.593   c-0.056,0.286-0.041,0.583,0.033,0.865c-0.614-0.119-1.272,0.049-1.757,0.518c-0.165,0.165-0.291,0.354-0.387,0.552   c-0.296-0.077-0.577-0.227-0.809-0.461c-0.675-0.695-0.661-1.809,0.035-2.482c0.268-0.262,0.602-0.407,0.947-0.462   C42.318,49.016,42.475,49.321,42.723,49.574z M39.402,46.25c0.271-0.262,0.602-0.407,0.949-0.462   c0.086,0.319,0.242,0.626,0.49,0.879c0.427,0.438,1.005,0.628,1.571,0.578c-0.205,0.379-0.283,0.8-0.226,1.214   c-0.598-0.1-1.229,0.073-1.696,0.528c-0.074,0.073-0.135,0.15-0.194,0.23c-0.339-0.065-0.666-0.218-0.926-0.484   C38.694,48.038,38.708,46.926,39.402,46.25z M38.569,48.879c0.428,0.439,1.007,0.626,1.572,0.58   c-0.206,0.374-0.282,0.8-0.225,1.213c-0.598-0.099-1.23,0.07-1.699,0.526c-0.072,0.071-0.133,0.149-0.192,0.23   c-0.34-0.065-0.667-0.218-0.925-0.484c-0.675-0.693-0.661-1.807,0.034-2.481c0.268-0.264,0.604-0.41,0.947-0.465   C38.166,48.319,38.322,48.624,38.569,48.879z M35.162,46.117c0.27-0.265,0.602-0.411,0.948-0.466   c0.084,0.322,0.24,0.628,0.488,0.881c0.396,0.407,0.923,0.603,1.448,0.593c-0.04,0.211-0.042,0.428-0.014,0.641   c-0.596-0.102-1.228,0.069-1.698,0.524c-0.222,0.219-0.376,0.479-0.475,0.755c-0.267-0.084-0.519-0.232-0.729-0.448   C34.453,47.901,34.468,46.791,35.162,46.117z M31.311,46.705c-0.223,0.218-0.377,0.478-0.475,0.754   c-0.267-0.083-0.52-0.232-0.73-0.448c-0.677-0.694-0.661-1.805,0.032-2.481c0.404-0.39,0.939-0.54,1.453-0.471   c-0.23,0.681-0.087,1.464,0.449,2.015c0.05,0.052,0.106,0.094,0.161,0.138C31.875,46.292,31.568,46.456,31.311,46.705z    M29.582,53.997c-0.252,0.247-0.417,0.548-0.509,0.862c-0.215-0.088-0.423-0.21-0.597-0.386c-0.675-0.695-0.661-1.807,0.031-2.482   c0.233-0.226,0.513-0.368,0.806-0.439c0,0.497,0.185,0.994,0.558,1.378c0.256,0.264,0.568,0.434,0.896,0.522   C30.338,53.493,29.917,53.671,29.582,53.997z M31.658,53.57c-0.067-0.027-0.135-0.044-0.204-0.062   c0.083-0.007,0.165-0.018,0.247-0.034C31.686,53.505,31.67,53.537,31.658,53.57z M32.112,52.879   c-0.13,0.13-0.231,0.274-0.321,0.426c-0.41-0.03-0.812-0.204-1.12-0.521c-0.677-0.695-0.661-1.808,0.033-2.481   c0.282-0.275,0.636-0.425,1-0.473c0.402,0.232,0.867,0.315,1.314,0.24c-0.4,0.717-0.326,1.625,0.24,2.266   C32.843,52.386,32.437,52.564,32.112,52.879z M33.356,49.613c-0.083,0.081-0.151,0.168-0.214,0.255   c-0.39-0.04-0.771-0.207-1.063-0.509c-0.677-0.694-0.661-1.806,0.032-2.483c0.175-0.168,0.376-0.283,0.59-0.364   c0.385,0.158,0.811,0.188,1.218,0.092c-0.294,0.71-0.162,1.556,0.408,2.143c0.125,0.126,0.266,0.228,0.414,0.315   C34.241,49.06,33.743,49.237,33.356,49.613z M34.952,52.733c-0.306-0.076-0.594-0.225-0.831-0.466   c-0.677-0.695-0.662-1.806,0.031-2.482c0.333-0.323,0.759-0.484,1.189-0.493c0.142,0.028,0.289,0.049,0.432,0.045   c-0.117,0.613,0.057,1.272,0.526,1.753c0.163,0.17,0.353,0.301,0.554,0.4c-0.52-0.021-1.043,0.162-1.445,0.552   C35.2,52.243,35.051,52.481,34.952,52.733z M37.261,54.836c-0.103,0.101-0.191,0.209-0.267,0.326   c-0.301-0.076-0.589-0.226-0.822-0.465c-0.679-0.695-0.661-1.808,0.032-2.482c0.431-0.42,1.021-0.573,1.568-0.466   c-0.052-0.027-0.106-0.047-0.159-0.072c0.086,0.003,0.171,0.003,0.256-0.003c-0.405,0.741-0.31,1.688,0.312,2.325   c0.112,0.116,0.236,0.207,0.366,0.287C38.081,54.308,37.623,54.484,37.261,54.836z M39.713,54.301   c-0.269-0.084-0.521-0.233-0.732-0.447c-0.674-0.695-0.659-1.809,0.036-2.484c0.266-0.262,0.601-0.406,0.945-0.461   c0.086,0.321,0.241,0.625,0.49,0.881c0.408,0.418,0.958,0.61,1.499,0.585c-0.065,0.209-0.099,0.424-0.093,0.642   c-0.59-0.088-1.209,0.083-1.669,0.529C39.966,53.764,39.811,54.025,39.713,54.301z M41.939,56.899   c0.021-0.003,0.038-0.01,0.058-0.017c0.002,0.01,0.001,0.017,0.002,0.023C41.979,56.906,41.958,56.901,41.939,56.899z    M41.984,56.701c-0.378-0.049-0.744-0.21-1.03-0.506c-0.674-0.692-0.661-1.804,0.034-2.481c0.254-0.246,0.565-0.389,0.891-0.452   c0.059,0.397,0.234,0.778,0.535,1.089c0.204,0.209,0.44,0.355,0.696,0.455c-0.196,0.09-0.377,0.215-0.54,0.373   C42.146,55.593,41.953,56.151,41.984,56.701z M44.095,58.284c-0.279-0.078-0.544-0.228-0.764-0.453   c-0.675-0.694-0.657-1.809,0.034-2.481c0.218-0.208,0.471-0.354,0.742-0.432c0.035-0.004,0.065-0.009,0.097-0.013   c0.14-0.031,0.282-0.047,0.424-0.044c0.082,0.331,0.242,0.646,0.498,0.909c0.209,0.215,0.459,0.366,0.725,0.464   c-0.424,0.045-0.837,0.224-1.167,0.545C44.265,57.19,44.073,57.741,44.095,58.284z M46.377,59.919   c-0.342-0.065-0.666-0.218-0.929-0.485c-0.677-0.693-0.662-1.805,0.032-2.481c0.324-0.312,0.733-0.477,1.148-0.494   c0.111,0.25,0.273,0.484,0.486,0.684c0.25,0.232,0.541,0.39,0.845,0.479c-0.372,0.066-0.728,0.234-1.02,0.519   C46.451,58.619,46.261,59.289,46.377,59.919z M48.995,59.507c-0.478,0.467-0.668,1.117-0.571,1.732   c-0.264-0.085-0.511-0.232-0.718-0.445c-0.676-0.692-0.662-1.803,0.03-2.48c0.298-0.288,0.667-0.44,1.046-0.479   c0.094,0.217,0.223,0.422,0.397,0.6c0.269,0.276,0.598,0.447,0.942,0.531C49.71,59.016,49.313,59.194,48.995,59.507z    M50.982,59.052c-0.054-0.016-0.106-0.031-0.159-0.046c0.055-0.006,0.105-0.014,0.161-0.022   C50.982,59.006,50.982,59.03,50.982,59.052z M51.005,58.79c-0.377-0.051-0.741-0.211-1.024-0.503   c-0.234-0.238-0.379-0.528-0.448-0.831c0.033-0.017,0.066-0.029,0.097-0.048c-0.037,0.009-0.071,0.007-0.108,0.011   c-0.116-0.567,0.045-1.18,0.491-1.614c0.345-0.337,0.792-0.492,1.239-0.487c0.017,0.473,0.197,0.941,0.554,1.307   c0.223,0.23,0.49,0.388,0.774,0.484c-0.366,0.07-0.714,0.237-1.001,0.518C51.246,57.949,51.061,58.361,51.005,58.79z    M53.563,59.486c-0.341,0.333-0.527,0.763-0.576,1.202c-0.235-0.086-0.459-0.217-0.646-0.409c-0.677-0.693-0.663-1.806,0.031-2.481   c0.341-0.333,0.781-0.49,1.221-0.49c0.042,0.436,0.217,0.86,0.545,1.197c0.192,0.196,0.414,0.335,0.649,0.434   C54.345,58.974,53.91,59.149,53.563,59.486z M56.126,57.617c-0.326,0.318-0.511,0.72-0.569,1.136   c-0.227-0.087-0.439-0.213-0.616-0.396c-0.678-0.692-0.662-1.806,0.03-2.482c0.329-0.319,0.75-0.48,1.175-0.493   c0.029,0.455,0.207,0.903,0.553,1.255c0.188,0.196,0.411,0.336,0.646,0.436C56.901,57.104,56.469,57.282,56.126,57.617z    M58.442,57.305c-0.061-0.034-0.124-0.062-0.186-0.088c0.063-0.006,0.128-0.008,0.191-0.019   C58.446,57.234,58.442,57.268,58.442,57.305z M59.038,55.878c-0.316,0.309-0.501,0.699-0.565,1.104   c-0.36-0.058-0.705-0.214-0.978-0.495c-0.678-0.692-0.66-1.807,0.033-2.48c0.323-0.317,0.739-0.48,1.155-0.495   c-0.073,0.581,0.099,1.19,0.539,1.641c0.128,0.133,0.274,0.237,0.428,0.326C59.43,55.571,59.221,55.701,59.038,55.878z    M62.928,54.532c-0.57-0.069-1.165,0.101-1.608,0.536c-0.113,0.108-0.206,0.232-0.287,0.358c-0.184-0.06-0.373-0.096-0.562-0.102   c-0.159-0.083-0.313-0.184-0.445-0.32c-0.679-0.693-0.661-1.804,0.031-2.48c0.26-0.252,0.578-0.397,0.911-0.457   c0.09,0.197,0.209,0.387,0.371,0.551c0.445,0.459,1.059,0.646,1.649,0.573C62.811,53.616,62.794,54.091,62.928,54.532z    M63.11,52.966c-0.356-0.061-0.7-0.217-0.975-0.496c-0.672-0.694-0.658-1.806,0.035-2.48c0.285-0.279,0.644-0.428,1.011-0.472   c0.09,0.197,0.211,0.388,0.37,0.554c0.4,0.409,0.932,0.605,1.464,0.59c-0.23,0.406-0.317,0.874-0.237,1.325   c-0.484,0.005-0.97,0.183-1.347,0.552C63.3,52.664,63.197,52.812,63.11,52.966z M65.645,54.257   c-0.393,0.384-0.592,0.893-0.596,1.403c-0.313-0.072-0.611-0.223-0.852-0.47c-0.679-0.692-0.663-1.806,0.031-2.481   c0.188-0.183,0.41-0.308,0.644-0.389c0.093,0.255,0.235,0.496,0.44,0.701c0.514,0.53,1.252,0.697,1.919,0.521   c0.001,0.058,0.004,0.117,0.014,0.176C66.678,53.652,66.088,53.825,65.645,54.257z"/></g><text x="0" y="115" fill="#000000" font-size="5px" font-weight="bold" font-family="'Helvetica Neue', Helvetica, Arial-Unicode, Arial, Sans-serif">Created by Federico Panzano</text><text x="0" y="120" fill="#000000" font-size="5px" font-weight="bold" font-family="'Helvetica Neue', Helvetica, Arial-Unicode, Arial, Sans-serif">from the Noun Project</text></svg>