<svg xmlns="http://www.w3.org/2000/svg" xmlns:xlink="http://www.w3.org/1999/xlink" version="1.1" x="0px" y="0px" viewBox="0 0 80 100" enable-background="new 0 0 80 80" xml:space="preserve"><path d="M60.3,34.6c0.2-1.8,0.3-3.4,0.6-5c0.2-1,0.5-2,0.9-2.9c0.5-1.2,3.5-2.2,4.9-1.1c1.4,1.2,2.5,2.6,2.7,4.5  c0.1,0.7,0.3,1.3,0.4,2c0.1,0.7,0.5,1.5-0.1,2.3c-0.1,0.1,0.2,0.5,0.2,0.7c0,0.6-0.1,1.3-0.1,1.9c-0.1,1.3-0.1,2.7-0.1,4  c0,0.4,0.1,0.8,0.2,1.1c0.5,1.3,0.7,2.6,0.5,4c-0.2,1-0.7,1.9-1.1,2.9c-0.1,0.3-0.1,0.6-0.1,0.9c-0.3,2-1.8,3-3.4,3.9  c-1.8,1.1-3.7,2-5,3.8c-0.2,0.2-0.5,0.3-0.8,0.4c-1,0.6-2.1,1-3.1,1.7c-1.4,0.9-3.1,1.4-4.6,2.1c-1.1,0.6-2.3,1.2-3.4,1.9  c-0.9,0.6-1.9,1.2-2.7,1.9c-0.6,0.5-1,1.3-1.6,1.9c-0.2,0.2-0.6,0.3-0.9,0.5c-0.2-0.4-0.5-0.8-0.4-1.1c0.2-0.6,0.6-1.2,1.1-1.7  c1.4-1.4,2.9-2.7,4.4-4.1c0.1-0.1,0.1-0.1,0-0.4c-0.9,0.3-2,0.5-2.8,1.1c-2.4,1.6-4.7,3.3-7,4.9c-0.1,0.1-0.2,0.3-0.3,0.3  c-0.3,0.1-0.7,0.3-0.9,0.2c-0.4-0.2-0.5-0.6-0.2-1c0.9-0.9,1.8-1.9,2.7-2.7c0.8-0.7,1.8-1.3,2.7-2.1c-0.5,0.1-1.1,0.2-1.6,0.2  c-1.7,0-3.1,0.9-4.5,1.7c-0.7,0.4-1.2,1-1.9,1.5c-0.2,0.2-0.6,0.1-0.9,0.1c0.1-0.3,0-0.7,0.2-0.9c0.5-0.6,1-1.2,1.5-1.7  c-1.4-0.4-2.9-0.9-4.3-1.3c-1.1-0.3-1.9-1.4-1.6-2.5c0.4-1.6,1.3-3,2.5-4.1c0.6-0.6,1.3-1.2,1.9-1.8c-1.1-1-2-1.9-3.1-2.8  c-0.5-0.4-1,0-1.2,0.4c-0.5,0.8-1,1.5-2,2c-0.8,0.3-1.3,1.2-1.9,1.8c-0.8,0.8-1.7,1-2.8,0.6c-0.7-0.2-1.3-0.6-2-0.8  c-0.7-0.2-1.4-0.3-2.1-0.5c-1.9-0.5-3.7-1.2-5.6-1.6c-0.8-0.2-1.8,0.1-2.7,0.1c-0.1,0-0.2,0.1-0.2,0c-0.3-0.2-0.7-0.4-1-0.6  c0.4-0.3,0.8-0.8,1.2-0.8c1.3-0.1,2.7,0.1,4,0.1c1,0,2,0,3.1-0.2c-0.6-0.3-1.2-0.6-1.9-0.8c-0.9-0.3-1.7-0.7-2.6-1  c-0.5-0.1-1.1-0.1-1.6-0.1c-1,0-1.4-0.5-1.3-1.6c2.6,0.1,5,1.4,7.8,1.6c-0.4-0.3-0.6-0.5-0.8-0.6c-1-0.4-2.1-0.8-3.1-1.2  c-0.6-0.2-0.9-0.9-0.6-1.7c1.9,0.9,3.8,1.8,5.7,2.7c0.1-0.1,0.1-0.2,0.2-0.2c-0.6-0.4-1.2-0.8-1.8-1.2c0.1-0.1,0.2-0.3,0.3-0.4  c0.4,0.1,0.8,0.1,1.1,0.2c-0.1-0.6-0.1-1.2-0.2-1.9c0.2,0,0.4-0.1,0.6-0.1c0.2,0.7,0.5,1.4,0.7,2.1c-0.2,0.1-0.4,0.3-0.6,0.4  c0.1,0.7,1.9,1.7,2.6,1.5c1.5-0.6,1.7-0.9,1.4-2.5c0-0.2,0.2-0.8-0.5-0.6c-0.1-0.4-0.2-0.7-0.3-1.1c0-0.3,0-0.7,0-1  c0.1-1.1-0.6-1.9-1.2-2.7c-0.9-1.1-2.1-2.1-2.8-3.3c-0.6-1.1-1.4-2.2-2.1-3.2c-0.9-1.3-2-2.4-2.9-3.7c-0.9-1.3-1.6-2.8-2.4-4.2  c-0.7-1.1-0.8-2.3-0.5-3.5c0-0.2,0-0.4,0-0.6c-1-3.1,1.9-5.5,4.4-5c0.1,0,0.2,0,0.2,0c1.3-0.1,2.7-0.3,4-0.4c0.3,0,0.6-0.1,0.8,0  c1.3,0.4,2.4-0.1,3.5-0.8c1.3-0.8,2.7-0.8,4-0.5c0.9,0.2,1.9,1,2.4,1.8c1.1,1.7,2.6,2.6,4.4,3.3c0.5,0.2,1,0.6,1.4,0.9  c0.5,0.3,1.1,0.6,1.6,0.8c2.5,0.8,5,1.6,7.5,2.4c2.8,0.9,5.6,1.6,8.3,2.7c1.1,0.5,2,1.7,2.8,2.6c0.9,1.1,1.7,2.4,2.5,3.6  C59.6,33.4,59.9,34,60.3,34.6z M11.9,23.1c-0.1,0-0.2,0.1-0.3,0.1c0.5,1.1,0.9,2.4,1.6,3.4c1.5,2.2,3.3,4.4,4.9,6.6  c0.3,0.4,0.5,0.8,0.8,1.2c0.8,1,1.6,1.9,2.5,2.8c0.5,0.5,1,0.9,1.7,1.5c0.3-1.7,1.5-2.1,2.7-2.5c-0.1,0.4-0.3,0.6-0.4,0.9  c-0.3,0.5-0.6,0.9-0.7,1.4c-0.4,1.1-0.4,2.3-0.1,3.5c0.4,1.7,0.9,3.4,0.3,5.2c-0.1-0.1-0.3-0.1-0.4-0.2c0,0.3,0,0.5,0,0.7  c-1.1,0.3-1.8,1.5-1.5,2.8c0.2,1.1,0,1.4-0.9,1.8c-0.4,0.2-0.8,0.1-1.1-0.2c-0.5-0.6-0.7-1.5-0.4-2.3c0.1-0.3,0.2-0.6,0.3-0.9  c0-0.1-0.1-0.1-0.1-0.2c-0.9,1.5-1.9,0.5-2.9,0.4c0.3,0.2,0.7,0.3,0.9,0.5c0.3,0.3,0.4,0.7,0.6,1.1c-0.4,0.2-0.7,0.5-1.1,0.5  c-0.5,0.1-1-0.1-1.5-0.1c-0.4,0-0.9,0-1.3,0c0.1,0.2,0.1,0.3,0.2,0.3c2.1,0.5,4.1,1,6.2,1.6c0.1,0,0.2,0.1,0.4,0.2  c2.1,0.8,3.1,0.8,4.6-1c-0.3-0.3-0.8-0.6-1-1c-0.2-0.3-0.2-0.8-0.2-1.2c0-0.1,0.5-0.2,0.7-0.3c0.1,0,0.2-0.1,0.3-0.1  c1.3-0.2,2.1-1.7,3.6-1.4c0.1,0,0.2-0.2,0.3-0.3c0.3-0.9,0.7-1.7,0.8-2.6c0.2-1.7,0.4-1.7-1.6-2.7c-0.2-0.1-0.4-0.3-0.4-0.3  c0.3-0.7-0.3-0.6-0.6-0.8c-0.3-0.2-0.7-0.3-1-0.5c0-0.1,0.1-0.2,0.1-0.3c0.7,0.2,1.4,0.4,2,0.5c-0.5-0.4-1-0.6-1.5-0.8  c-0.2-0.1-0.5-0.4-0.4-0.6c0.2-0.8,0.6-0.9,1.5-0.7c0.2,0,0.3,0.1,0.5,0.2c0,0,0-0.1,0.1-0.1c-0.4-0.2-0.7-0.4-1.2-0.7  c1.3-0.3,2.8,0.4,3.2,1.4c0.3,1,0.4,2,0.5,3.1c0.1,0.5,0,1,0.1,1.6c0.2,0.9,0.1,1.9-0.4,2.7c-0.3,0.6-0.2,1,0.3,1.3  c1.1,0.9,2.3,1.8,3.4,2.7c0.1,0.1,0.4,0.1,0.5,0c0.7-0.3,1.5-0.7,2.2-1c0.2-0.1,0.5-0.4,0.6-0.7c0.3-0.7,0.6-1.4,0.9-2  c0.2-0.5,0.4-1.2,0.7-1.3c0.4-0.1,1,0.3,1.6,0.5c-0.1,0.8-0.2,1.6-0.3,2.5c0.1,0,0.3,0.1,0.5,0.1c1.3-0.2,2.6-0.4,3.9-0.6  c1.7-0.3,3.3-0.6,5-0.8c0.2,0,0.5,0.2,0.7,0.4c-0.2,0.2-0.4,0.4-0.6,0.5c-0.3,0.1-0.6,0.1-0.9,0.1c-1,0.2-2,0.6-3,0.8  c-1.6,0.3-3.3,0.5-4.9,1c-1.7,0.5-3.4,1.2-5.2,1.7c-2.7,0.8-4.3,2.8-5.4,5.3c-0.2,0.5-0.2,0.9,0.3,1.3c0.4,0.2,0.9,0.8,0.8,1  c-0.3,0.9,0.4,0.9,0.9,1c0.8,0.2,1.7,0.4,2.6,0.4c4-0.1,7.9-0.8,11.7-2c0.6-0.2,1.3-0.4,1.9-0.4c1.2,0.1,2-0.7,2.9-1.4  c-0.2,0-0.4,0.1-0.9,0.2c4.1-2.4,7.9-4.7,11.7-7c0,0.1,0.1,0.1,0.1,0.2c-0.4,0.3-0.7,0.6-1.1,0.8c-0.2,0.2-0.5,0.3-0.5,0.5  c-0.1,0.4-0.1,0.9-0.2,1.4c0.2-0.1,0.5-0.1,0.8-0.2c0.4-0.2,0.8-0.5,1.2-0.5c1.2,0,2.1-0.5,3-1.4c0.7-0.7,1-1.5,0.8-2.4  c-0.2-0.8-1-1.1-1.8-1.2c-1-0.1-2,0-3.1-0.1c-2.4-0.1-4.6,0.6-6.8,1.4c-1.4,0.5-2.7,1-4,1.7c-1.4,0.7-3.1,1.2-2.9,3.2  c0,0.1,0,0.1,0,0.1c0.3,0.4,1.4,0.3,0.7,1.1c0.5,0.7,1,1.4,1.5,2.2c-1.2,0.4-2.2,0.8-3.4,1.2c0.1-0.2,0.2-0.3,0.3-0.4  c-0.3-0.2-0.6-0.5-1-0.7c0.3-0.4,0.5-0.8,0.8-1.2c-0.4,0.2-0.8,0.3-1.3,0.5c0,0,0-0.1-0.1-0.1c0.2-0.2,0.4-0.4,0.8-0.7  c-0.5,0.1-0.8,0.2-1,0.3c0-0.1-0.1-0.1-0.1-0.2c0.4-0.5,0.9-1,1.3-1.5c-0.9,0.4-1.7,0.5-2.6,0.2c-0.1,0-0.2,0.1-0.3,0.1  c-1.5,0.1-2.9,1-4.4,0.2c0-0.5,0.3-0.8,0.8-0.9c0.5-0.1,0.9-0.2,1.3-0.4c2.9-1.4,5.8-2.8,8.7-4.1c2.8-1.3,5.7-2.3,8.8-2.7  c1.2-0.1,2.5-0.2,3.7-0.3c0.2,0,0.5-0.1,0.6-0.1c-0.2-0.7-0.4-1.4-0.6-2c-0.3-0.7-0.7-1.4-1-2.1c-0.7-1.5-1.3-3.1-2-4.6  c-1.4-2.9-2.6-5.9-4.9-8.3c-0.7-0.7-1.4-1.5-2.2-1.8c-4.3-1.7-8.6-3.2-13-4.3c-0.9-0.2-1.8-0.3-2.6-0.7c-2-1-3.9-2.2-5.8-3.3  c-0.5-0.3-1.1-0.8-1.5-1.2c-0.6-0.6-1-1.4-1.6-2c-1.2-1.3-2.6-1.4-4.2-0.2c0.7,0.4,1.4,0.8,2.1,1.2c0.3,0.2,0.6,0.4,0.9,0.7  c0.1,0.1,0.1,0.3,0.1,0.4c-0.1,0.1-0.3,0.1-0.4,0.1c-1-0.3-2.1-0.5-3-0.9c-1.4-0.6-2.8-0.8-4.3-0.8c-0.9,0-1.9,0.1-2.8,0.1  c-0.8,0-1.5,0.1-2.3,0.1c0,0.1,0,0.1,0,0.2c0.3,0.1,0.6,0.2,1,0.4c-1,0.1-1.9,0.2-2.8,0.4c-0.5,0.1-0.9,0.4-0.9,1  c-0.1,1.8,0.2,3.4,1.2,4.9c1.5,2.1,3.1,4,5.1,5.6c0.7,0.6,1.3,1.3,1.9,2c0.1,0.2,0.1,0.5,0.1,0.7c-0.2-0.1-0.5-0.1-0.7-0.2  c-0.5-0.3-1-0.6-1.5-1c-2-1.9-4-3.8-5.4-6.2C12.6,24.3,12.3,23.7,11.9,23.1z M68.7,37.4c0.1-1,0.2-1.9,0.2-2.7  c0-2.2-0.5-4.3-1.2-6.4c-0.2-0.8-0.7-1.3-1.4-1.8c-0.8-0.5-1.4-0.6-2.2-0.2c-1.2,0.6-2,1.4-2.2,2.6c-0.3,1.4-0.6,2.9-0.8,4.4  c-0.1,1.1,0,2.3,0.3,3.4c0.5,1.7,1.3,3.3,1.9,5c0.6,1.5,1.1,3.1,1.7,4.6c0.1,0.1,0.2,0.3,0.4,0.3c0.8,0.3,1.6,0.6,2.4,1  c0.6,0.3,0.9,0.1,1.1-0.3c0.2-0.5,0.4-1.2,0.4-1.7c0-1-0.2-2-0.3-3c-0.1-1.3-0.2-2.6-0.4-4c-0.5,0.1-1,0.1-1.4,0.3  c-0.9,0.3-1.7,0.8-2.5,1.1c-1,0.4-1.4-0.1-1.9-1.7c-0.3-0.9,0.5-0.9,1-1.1c0.2-0.1,0.5,0.1,0.8,0c0.3-0.1,0.6-0.2,0.8-0.4  c0.4-0.3,0.7-0.7,1.3-0.3c-0.1,0.3-0.2,0.5-0.2,0.7c0.4,0.1,0.8,0.2,1.2,0.3c0.1-0.2,0.2-0.4,0.4-0.7C68.3,37.1,68.5,37.2,68.7,37.4  z M60.7,54.1c0-0.1,0-0.2-0.1-0.3c-0.2,0.1-0.4,0.1-0.6,0.2c-0.5,0.4-1,1-1.6,1.1c-1.1,0.2-1.8,0.9-2.6,1.5  c-0.9,0.6-1.4,1.4-2.7,1.5c-1.2,0.1-2.3,1.1-3.6,1.8c0.7,0.1,1.1,0.1,1.4,0.2c-1.1,1.1-2.2,2.1-3.2,3.1c2.1-1,4.2-2.1,6.3-3.1  c0.5-0.2,0.5-0.5,0.3-0.9c-0.3-0.5-0.2-0.9,0.4-1.2c0.5-0.2,1-0.8,1.4-0.8c0.4,0.1,0.7,0.8,1.2,1.3c0.8-0.5,1.5-1,2.4-1.6  c-0.3-0.3-0.5-0.4-0.7-0.5c-0.7-0.6-0.6-1.1,0.2-1.6C59.8,54.7,60.2,54.4,60.7,54.1z M38.6,65.8c0.1,0.1,0.1,0.2,0.2,0.2  c0.8-0.6,1.5-1.2,2.3-1.8C41.1,64.1,41,64.1,41,64C40.2,64.6,39.4,65.2,38.6,65.8z"/><path d="M52.4,32.7c0.1-0.2,0.2-0.3,0.3-0.5c0.7,0.6,1.3,1.2,2.1,1.8c-0.4,0.2-0.6,0.3-1,0.6c0.7,0.8,1.5,1.5,2.1,2.3  c0.4,0.6,0.6,1.4,0.9,2.1c0.1-0.1,0.3-0.2,0.4-0.3c0.1,0.1,0.1,0.1,0.1,0.1c-0.4,1.1,0.6,1.4,1,2c0.3,0.4,0.8,1,0.7,1.4  c-0.2,0.7,0.1,0.9,0.8,1c-0.3,0.6-0.5,1-0.7,1.4c-0.7-1.4-1.6-2.7-2.2-4.1c-1.1-2.6-3.1-4.5-4.7-6.7c-0.3-0.4-0.8-0.7-1.3-0.9  c-2.5-1-5.2-1.8-7.5-3.1c-1.8-1-3.8-1.6-5.6-2.8c0.2-0.1,0.3-0.1,0.5-0.2c-0.4-0.2-0.7-0.4-1.1-0.6c1.4-0.6,2,0.9,3.1,1.2  c0.1-0.2,0.1-0.5,0.2-0.7c0.1,0,0.1,0,0.2,0c0,0.3,0.1,0.5,0.1,0.8c0.6-0.3,0.6-0.4,0-1.1c0.3-0.4,0.6-0.7,1-1.2  c0.3,0.7,0.5,1.2,0.7,1.8c0,0.1,0.1,0.2,0.1,0.3c-0.7,0.9,0.1,1,0.6,1.1c0.6,0.1,1.3,0.2,1.5,1c0,0,0.2,0,0.5,0.1  c-0.3-0.4-0.6-0.7-0.8-1.1c0.1,0,0.1-0.1,0.2-0.1c0.5,0.3,1.2,0.3,1.2,1.2c0,0.1,0.3,0.3,0.5,0.4c0.3,0.2,0.6,0.4,1,0.6  c0-0.3,0-0.6,0-0.9c0.6,0.1,1.1,0.2,1.6,0.3c-0.1,0.4-0.2,0.7-0.3,1.1c1,0.3,1.4,0.2,1.6-0.5c0.3-1,0.3-1-1.2-1.6  c0.3-0.2,0.6-0.4,0.8-0.5c0.2,0.3,0.3,0.6,0.5,0.7c0.7,0.6,0.9,1.1,0.7,2.1C50.8,32,51.6,32.4,52.4,32.7z"/><path d="M32.3,28.2c0.7,0.4,1.4,0.8,2.1,1.2c0,0,0,0.1-0.1,0.1c-1.4-0.5-2.8-1.1-4.2-1.6c-1.4-0.5-2.8-0.8-4.1-1.2  c-0.5-0.1-0.9,0-1.4,0.5c-1,1.1-2.2,0.9-3.4,0.6c-1.4-0.4-2.2-1.3-2.7-2.8c-0.4-1.3-0.4-2.4,0.2-3.5c0.7-1.1,1.5-2.3,3-2.4  c2.2-0.2,3.7,1.6,4,3.7c0.1,0.8,0.2,1.5,1.2,1.8c0.1,0,0.2,0.1,0.3,0.2c1.5,1.7,3.6,2.4,5.6,3.2c1.7,0.7,3.5,1.5,5.1,2.3  c1.5,0.7,2.9,1.6,4.3,2.5c0.9,0.6,1.6,1.5,2.4,2.3c0.4,0.3,0.7,0.7,1,1.1c0.2,0.2,0.3,0.5,0.2,0.8c-2.2-1.6-4.4-3.3-6.6-4.9  c0,0,0,0,0-0.1c1.2,0.7,2.4,1.3,3.5,2C42.1,32.7,34.7,28.6,32.3,28.2z M22.5,26.8c0.9,0.1,1.5-0.3,1.8-1.1c0.1-0.2,0.3-0.5,0.3-0.7  c0.4-1.4,0.5-2.7-0.5-3.9c-1.1-1.3-2.4-1.5-3.8-0.5c-1.3,1-1.7,2.6-1.1,4.1c0.3,0.8,0.6,1.7,1.6,1.8C21.5,26.6,22,26.7,22.5,26.8z   M25.8,24.9c-0.1,0.3-0.2,0.7-0.3,1.1c1.5,0.5,2.9,1,4.4,1.4c0,0,0-0.1,0-0.1C28.5,26.5,27.1,25.7,25.8,24.9z"/><path d="M40.6,34.3c0.9,0.7,1.5,1.3,2.3,1.7c0.6,0.3,1,0.7,1.3,1.2c0.5,0.7,1,1.5,0.5,2.5c-0.2,0.4,0,0.9,0,1.4  c0,0.4-0.1,0.8-0.1,1.3c-0.4-0.3-0.6-0.4-0.8-0.5c-0.9,0.6-2,0.6-3.2-2.4c0.3,0,0.5,0.1,0.8,0.1c-0.1-0.6,0.3-0.8,0.9-0.7  c0-0.9,0.6-0.4,1.3-0.5C41.7,37.5,40.5,36.5,40.6,34.3z"/><path d="M39.8,58.5c-0.5,0.1-0.9,0.2-1.3,0.2c-0.3,1-1.4,1.5-2.4,1c-0.2-0.1-0.5-0.1-0.7,0c-0.5,0.2-0.7,0-0.7-0.5  c0-0.1,0.1-0.3,0.1-0.4c0.5-0.9,1.2-1.7,1.2-3C37.4,56.7,39,56.9,39.8,58.5z"/><path d="M18.7,19.8c0.1-0.2,0.3-0.4,0.4-0.6c0.1-0.2,0.3-0.4,0.2-0.5c-0.1-0.1-0.3-0.2-0.5-0.3c-0.6-0.1-1.3-0.2-1.9-0.3  c-0.2,0-0.3-0.2-0.5-0.3c0-0.1,0.1-0.1,0.1-0.2c1.2,0.1,2.5,0.3,3.7,0.4c0.3,0,0.5,0,0.8-0.1c1.6-0.3,3-0.1,4.3,1  c0.4,0.3,0.8,0.5,1.3,0.7c0.3,0.1,0.5,0.3,0.8,0.4c0,0.1,0,0.1,0,0.2c-0.2,0-0.4,0.1-0.7,0.1c0.4,0.7,0.8,1.2,1.2,1.9  c-0.8,0.3-1.2,0.2-1.5-0.5c-0.4-1-1-1.8-1.8-2.4c-1.5-1.2-3.5-0.7-4.9,0.2c-0.2,0.2-0.5,0.3-0.7,0.5C18.8,19.9,18.7,19.8,18.7,19.8z  "/><path d="M47.1,44.9c0.1-0.1,0.1-0.1,0.1-0.1c1.1,0.3,1.7-0.5,2.5-1c0.8-0.6,1.1-0.5,2,0.6c-0.3,0.3-0.6,0.6-1,0.9  c0,0.1,0.1,0.2,0.1,0.2c0.4,0,0.7,0,1-0.1c-0.1,0.7-0.3,1.4-0.4,2.1c-0.4-0.2-0.7-0.5-1.1-0.6c-0.3,0-0.6,0.3-0.9,0.5  c-0.2-0.1-0.6-0.3-1-0.5C48,46.7,47.3,45.8,47.1,44.9z"/><path d="M52.6,52.1c0.4-0.5,0.8-0.9,1.3-1.4c0.3-0.3,0.7-0.5,1-0.6c0.3-0.1,0.7,0.2,0.8,0.4c0.1,0.1,0,0.6-0.1,0.8  c-0.4,0.4-0.4,0.8-0.1,1.3c0.2,0.3,0.5,0.8,0.5,1.1c0,0.4-0.4,0.7-0.5,1.2c-0.1,0.4-0.6,0.5-1,0c-0.3-0.4-0.7-0.7-1-1.1  c-0.1-0.1-0.3-0.4-0.2-0.5C53.9,52.4,52.8,52.6,52.6,52.1z"/><path d="M35.3,39c0-0.2,0-0.4,0-0.5c-0.6,0.3-1.2,0.8-1.8,0c0.3-0.5,0.6-1,1.4-0.8c0.1,0,0.3,0,0.4-0.1c0.4-0.3,0.8-0.6,1.3-0.9  c0.3,0.5,0.6,1,0.8,1.5c0,0,0-0.1,0-0.1c0.6,0.3,1.1,0.6,1.7,0.9c0,0.1-0.1,0.2-0.1,0.3c-0.2,0-0.3,0.1-0.4,0.1  c0.1,0.3,0.2,0.6,0.3,0.9c0,0.1-0.3,0.2-0.4,0.3c-0.1,0-0.3,0-0.4,0c-0.6,0.3-1.2,0.2-1.3-0.4C36.7,39.1,35.9,39.2,35.3,39z"/><path d="M27.8,28.8c1.9,0.6,2.7,2.1,3.4,3.7c-0.1,0-0.1,0-0.2,0c-0.1,0.3-0.2,0.6-0.3,0.9c-0.1,0.3-0.3,0.6-0.4,0.8  c-0.5-0.2-1.1-0.3-1.3-0.7c-0.7-1.3-0.2-3.1-1.2-4.4C27.7,29.1,27.8,28.9,27.8,28.8z"/><path d="M34.8,45.8c0.3,0,0.6,0,0.9,0.1c0.5,0.3,1.2,0.6,1.2,1c0.1,0.8,0.2,1.8-0.6,2.4c-0.7,0.5-2.2-0.4-2.3-1.5  c0-0.2,0-0.5-0.1-0.7C33.6,45.9,33.5,45.9,34.8,45.8z"/><path d="M24.9,36.2c0-0.3-0.1-0.5-0.1-0.6c0.2-1.2,0.3-2.4,0.5-3.6c0.1-0.7,0.3-1.3,0.6-1.9c0.2-0.4,0.6-0.4,0.7,0  c0.3,1.2,0.6,2.5,0.7,3.7c0.1,0.7-0.4,1.2-1.2,1.3C25.8,35.2,25.5,35.8,24.9,36.2z"/><path d="M53.1,39.2c-1.1,0.1-0.8,1.1-0.9,1.8c-1-0.6-1.9-1.3-2.3-2.4c-0.1-0.4-0.5-0.7-0.7-1c-0.1-0.2-0.1-0.5-0.2-0.7  c0.3,0,0.6-0.2,0.9-0.1c0.6,0.3,1.3,0.4,1.6,1.2C51.7,38.4,52.5,38.7,53.1,39.2z"/><path d="M33.4,34.6c0.2,0.1,0.3,0.1,0.4,0.1c0.1-0.8,0.2-1.5,0.3-2.3c0.1,0,0.2,0,0.2,0c-0.1-0.6-1.1-0.9-0.4-1.7  c1,0.6,2,1.2,2.9,1.8c-1.1,1.1-2.1,2-3.1,3C33.7,35.1,33.6,34.9,33.4,34.6z"/><path d="M57.6,50.1c0.3-0.2,0.5-0.4,0.7-0.6c0.2-0.2,0.3-0.4,0.4-0.7c1.9-0.1,1.9-0.1,3.3,1.2c0,0.1-0.1,0.1-0.1,0.2  c-0.3-0.2-0.5-0.4-0.8-0.5c-0.6,0.4-0.8,1.2-0.5,1.8C59.5,51.3,58.3,51.3,57.6,50.1z"/><path d="M28.8,43.4c1,0.1,2.3,0.9,2.1,1.2c-0.2,0.5-0.6,1-1.1,1.3c-0.3,0.2-1.9-1.1-1.8-1.5C28.2,43.9,28.3,43.4,28.8,43.4z"/><path d="M25.7,47.1c0-0.8,0.4-1.4,1.2-1.2c0.6,0.2,1.1,0.8,1.4,1.4c0.2,0.4-0.8,1.1-1.5,1.1C26.2,48.4,25.7,47.8,25.7,47.1z"/><path d="M45,26.9c-0.6,0.2-1,0.3-1-0.5c0-0.1-0.6-0.3-1-0.5c0.6-0.2,1.2-0.2,1.5,0.4c0.3,0.5,0.5,0.6,1.1,0.4  c0.9-0.2,1.7,0.1,2.3,0.9c-0.6-0.2-0.7,1.3-1.6,0.4C45.8,27.6,44.8,28,45,26.9z"/><path d="M39.7,44.2c0,0-0.2-0.1-0.5-0.3c0.2-0.2,0.3-0.4,0.5-0.6c0.4-0.5,0.8-0.4,1.1,0.1c0.2,0.3,0.4,0.7,0.6,1.1  c0,0.1-0.1,0.4-0.2,0.8c-0.2,0.1-0.5,0.1-0.6,0.2c-0.6,0.7-0.9,0.1-1.1-0.3C39.3,45,39.6,44.6,39.7,44.2z"/><path d="M14.1,22.4c-0.7-0.7-1-1.6-0.6-2.6c0,0.3,0.1,0.7,0.1,1c0.1,0,0.1,0,0.2,0c0.1-0.3,0.1-0.6,0.2-0.8c1.1-0.1,1,0.8,1.2,1.2  c0.6,0.2,1,0.3,1.5,0.5C15.8,22.2,14.8,21.5,14.1,22.4z"/><path d="M50.2,40.6c-1-0.9-2.4-2.2-3.9-3.6C47.2,37,49.6,39.5,50.2,40.6z"/><path d="M37.7,37.3c-0.5-1.3-1.1-1.9-2.3-0.9c0.3-1.1,0.5-1.2,1.6-0.9c0.1,0,0.1,0,0.2,0c0.3,0.1,0.7,0.2,1,0.2  C37.9,36.3,37.8,36.8,37.7,37.3z"/><path d="M51.1,29.5c0.4-0.1,0.7-0.2,1.1-0.3c0.5,0.7,1,1.5,1.5,2.3c-0.1,0.1-0.1,0.1-0.2,0.2c-0.4-0.3-1.2,0-1-1  c0-0.2-0.4-0.4-0.6-0.6C51.7,29.9,51.4,29.8,51.1,29.5z"/><path d="M30.9,22.9c-0.5-0.4-0.9-0.8-1.4-1.1c-0.2-0.2-0.4-0.3-0.6-0.4c-0.2-0.2-0.3-0.4-0.4-0.6c0,0,0.2-0.3,0.2-0.3  c0.2,0.1,0.4,0.1,0.6,0.3c0.4,0.3,0.7,0.6,1,0.9c0.3,0.3,0.6,0.7,0.9,1C31,22.8,30.9,22.9,30.9,22.9z"/><path d="M36.9,27c-1-0.6-1.9-1.3-2.9-1.9c0.1-0.1,0.1-0.2,0.2-0.3c1,0.6,1.9,1.2,2.9,1.8C37.1,26.7,37,26.8,36.9,27z"/><path d="M54.8,34.4c0.2-0.2,0.4-0.3,0.8-0.6c0.1,0.6,0.2,1.1,0.2,1.6c-0.1,0-0.1,0.1-0.2,0.1C55.4,35.2,55.1,34.8,54.8,34.4z"/><path d="M49.5,27.5c-0.4-0.1-0.8-0.1-1.2-0.2c0.2-0.2,0.5-0.5,0.7-0.6c0.2,0,0.4,0.3,0.6,0.5C49.6,27.3,49.5,27.4,49.5,27.5z"/><path d="M38,24.5c0.5,0.3,0.9,0.7,1.4,1c-0.1,0.1-0.1,0.2-0.2,0.2c-0.7,0-0.9-0.7-1.4-0.9C37.8,24.7,37.9,24.6,38,24.5z"/><path d="M62.5,32.3c0.6-1,1.4-1.6,2.6-1.7c1.2-0.1,2.7,0.9,2.9,2.1c0,0.2-0.1,0.5-0.1,0.7c-0.3-0.1-0.6-0.1-0.8-0.2  c-0.3-0.2-0.4-0.5-0.7-0.9c-0.1,0.3-0.2,0.6-0.3,0.7c-0.2,0.2-0.4,0.4-0.6,0.5c-0.1,0.1-0.3,0.1-0.4,0.1c-0.5,0.5-1.1,1-1.6,1.5  c-0.3,0.3-0.7,0.5-1.1,0.2c-0.3-0.3-0.8-0.7-0.7-1C61.8,33.6,62.2,33,62.5,32.3c0.1,0.1,0.1,0.2,0.1,0.3c0.3-0.1,0.5-0.2,0.9-0.4  c-0.3,0.6-0.5,0.9-0.7,1.3c0.4-0.3,1.2,0.2,1.4-0.6c0-0.2,0.3-0.3,0.7-0.5c-0.4-0.2-0.9-0.5-1.5-0.9C63.1,31.9,62.8,32.1,62.5,32.3z  "/><path d="M22.5,26.8c-0.5-0.1-1-0.2-1.6-0.3c-0.8-1-1.4-2-1.4-3.3c0-1.2,1-2.7,2.2-2.8c0.4,0,0.9,0.1,1.2,0.3c1,0.8,1.5,1.9,1.3,3.1  C24.1,25,23.8,26.2,22.5,26.8z M22.2,25.7c-0.5-0.2-0.9-0.2-1.1-0.5c-0.4-0.5-0.2-2.6,0.2-3.1c0.4-0.5,1.2-0.6,1.4-0.1  c0.2,0.5,0.4,1.1,0.3,1.6c0,0.7-0.3,1.3-0.4,2c0,0,0.1-0.1,0.2-0.1c0.1,0,0.1-0.1,0.2-0.2c0.7-1.1,0.6-2.3,0-3.4  c-0.4-0.8-1.1-0.9-1.8-0.5c-1.1,0.6-1.6,2.7-0.9,3.7C20.8,25.6,21.3,26.1,22.2,25.7z"/><text x="0" y="95" fill="#000000" font-size="5px" font-weight="bold" font-family="'Helvetica Neue', Helvetica, Arial-Unicode, Arial, Sans-serif">Created by Francesco Cesqo Stefanini</text><text x="0" y="100" fill="#000000" font-size="5px" font-weight="bold" font-family="'Helvetica Neue', Helvetica, Arial-Unicode, Arial, Sans-serif">from the Noun Project</text></svg>