<?xml version="1.0" encoding="utf-8"?>
<!-- Generator: Adobe Illustrator 16.0.4, SVG Export Plug-In . SVG Version: 6.00 Build 0)  -->
<!DOCTYPE svg PUBLIC "-//W3C//DTD SVG 1.1//EN" "http://www.w3.org/Graphics/SVG/1.1/DTD/svg11.dtd">
<svg version="1.1" id="Layer_1" xmlns="http://www.w3.org/2000/svg" xmlns:xlink="http://www.w3.org/1999/xlink" x="0px" y="0px"
	 width="500px" height="400.173px" viewBox="1028.5 54.922 500 400.173" enable-background="new 1028.5 54.922 500 400.173"
	 xml:space="preserve">
<g>
	<path d="M1528.499,270.745l-27.513-3.629l24.203-10.349l-32.776,3.84l7.947-12.459l-14.523,9.277
		c-9.517-5.141-20.525-13.927-35.312-7.948c-4.325,1.758-8.445,4.304-12.296,7.268l-0.057-2.122
		c-0.123-3.852-0.2-7.681-0.429-11.499c-1.894-30.65-12.767-59.269-27.336-82.718c-1.998-2.958-3.896-5.928-5.832-8.842
		c7.104-3.901,14.217-9.533,19.407-17.75c12.242-19.363,3.16-43.846,3.16-43.846l10.126-24.304l-14.736,12.654l-4.416-22.065
		l-5.576,22.456l-11.678-14.017l5.961,21.842l-14.926,3.282l18.298,6.447c0,0,4.404,18.583-3.281,28.558
		c-3.875,5.035-8.932,8.697-14.028,11.354c-2.149-2.612-4.309-5.264-6.402-7.832c-4.516-4.94-9.417-9.746-13.96-14.412
		c-4.817-5.236-8.491-7.681-12.448-11.242c-1.92-1.681-3.835-3.333-5.721-4.974l-2.591-2.233l-1.697-1.312
		c-1.133-0.86-2.237-1.748-3.31-2.668c-4.293-3.662-8.306-7.524-12.453-11.102c-2.061-1.842-3.97-3.724-6.102-5.515
		c-2.271-1.73-22.796-16.227-46.083-19.045c-8.458-0.955-14.352-1.167-24.661-0.625c-32.437,3.478-40.252,9.819-40.252,9.819
		c-2.138,0.988-4.002,2.607-5.292,4.778c-3.399,5.721-2.327,10.382,3.389,16.165c0,0,5.292,4.984,11.398,9.406
		c26.224,19.001,32.196,22.98,44.511,28.048c6.563,2.702,17.917,3.852,19.52,4.388c1.546,0.542,3.21,0.932,4.89,1.412
		c1.741,0.575,3.623,1.295,5.476,1.981c1.831,0.765,3.784,1.413,5.633,2.289c1.775,0.971,3.544,2.004,5.253,3.182
		c0.876,0.558,1.734,1.161,2.561,1.808l0.833,0.62l0.614,0.591c1.808,1.731,3.622,3.483,5.469,5.258
		c3.438,3.461,8.056,7.496,9.887,10.6c2.399,3.377,4.934,6.463,7.339,10.086c1.062,1.875,2.155,3.807,3.233,5.705
		c-5.604,6.073-15.797,15.027-28.592,16.964c-12.447,1.881-26.564-10.974-26.564-10.974l3.232-19.135l-10.104,11.459l-16.215-15.803
		l6.598,17.014l-22.338-6.012l17.146,14.563l-18.196,6.749l26.167,2.925c0,0,17.014,19.811,39.883,18.487
		c16.924-0.977,29.835-10.762,37.562-18.548c0.279,0.681,0.535,1.356,0.826,2.021c6.86,18.119,10.584,37.605,12.743,57.89
		c0.128,2.562,0.425,5.125,0.67,7.704l0.402,3.885c0.033-0.748-0.023,1.998,0.078-1.613v0.307v0.608v1.2l0.005,2.445
		c0,3.244,0.017,6.507,0.017,9.774l0.095,4.84l-0.278,3.489c-0.05,0.726-0.067,1.457-0.105,2.188
		c-8.245-4.085-17.377-7.285-26.236-7.591c-15.942-0.553-31.425,14.462-38.593,22.563l-16.835-3.724l11.744,8.97l-32.118,7.643
		l26.302,1.4l-24.605,12.866l30.986-5.325l-18.304,14.698l33.128-11.45c0,0,19.905-27.229,31.828-25.598
		c3.74,0.502,12.275,5.208,20.537,10.237c-0.308,1.536-0.643,3.081-0.865,4.673c-3.713,22.315-12.136,45.805-27.118,65.799
		c-15.183,19.799-36.688,34.407-59.648,44.187c-23.143,9.802-47.959,14.412-72.815,13.375c-24.047-0.844-47.675-6.71-68.061-16.663
		c-20.458-9.807-37.979-23.036-51.615-37.622c-13.672-14.535-24.265-29.919-30.925-44.828c-0.909-1.831-1.796-3.628-2.68-5.403
		c-0.764-1.814-1.395-3.656-2.093-5.437c-1.351-3.566-2.657-7.011-3.913-10.315c-2.015-6.771-3.478-13.118-4.983-18.778
		c-0.883-5.816-1.664-10.99-2.339-15.5c-0.716-4.516-0.487-8.413-0.732-11.549c-0.251-6.275-0.39-9.618-0.39-9.618l-0.017-0.324
		c0-0.017,0-0.034,0-0.05c-0.107-1.669-1.547-2.953-3.228-2.847c-1.679,0.1-2.958,1.54-2.856,3.226c0,0,0.199,3.45,0.579,9.924
		c0.323,3.227,0.189,7.263,0.994,11.902c0.72,4.64,1.534,9.985,2.461,15.959c1.536,5.854,3.021,12.402,5.08,19.392
		c1.223,3.443,2.496,7.021,3.802,10.739c0.68,1.847,1.296,3.768,2.054,5.655c0.865,1.852,1.747,3.733,2.629,5.644
		c6.692,15.5,16.931,31.871,30.551,47.663c13.721,15.674,31.057,30.822,52.206,42.601c21.117,11.678,45.688,20.414,72.6,23.483
		c26.039,3.021,54.769,1.101,82.065-7.368c27.513-8.361,53.145-23.449,76.717-41.987c23.372-18.755,44.629-42.422,59.057-70.565
		c3.842-6.934,6.659-14.285,9.268-21.731c2.12-5.052,3.527-10.929,4.816-16.874c7.206-9.423,16.941-21.485,21.351-23.818
		c10.645-5.615,30.008,13.139,30.008,13.139l35.033-0.625l-22.228-7.525L1528.499,270.745z"/>
</g>
</svg>
