<svg xmlns="http://www.w3.org/2000/svg" xmlns:xlink="http://www.w3.org/1999/xlink" version="1.1" x="0px" y="0px" viewBox="0 0 100 125" enable-background="new 0 0 100 100" xml:space="preserve"><g><path fill-rule="evenodd" clip-rule="evenodd" d="M94.785,52.821l-4.929-0.65l4.336-1.854l-5.872,0.688l1.424-2.232l-2.602,1.662   c-1.705-0.921-3.677-2.495-6.326-1.424c-0.775,0.315-1.513,0.771-2.203,1.302l-0.01-0.38c-0.022-0.69-0.036-1.376-0.077-2.06   c-0.339-5.491-2.287-10.618-4.897-14.819c-0.358-0.53-0.698-1.062-1.045-1.584c1.273-0.699,2.547-1.708,3.477-3.18   c2.193-3.469,0.566-7.855,0.566-7.855l1.814-4.354l-2.64,2.267l-0.791-3.953l-0.999,4.023l-2.092-2.511l1.068,3.913l-2.674,0.588   l3.278,1.155c0,0,0.789,3.329-0.588,5.116c-0.694,0.902-1.6,1.558-2.513,2.034c-0.385-0.468-0.772-0.943-1.147-1.403   c-0.809-0.885-1.687-1.746-2.501-2.582c-0.863-0.938-1.521-1.376-2.23-2.014c-0.344-0.301-0.687-0.597-1.025-0.891l-0.464-0.4   l-0.304-0.235c-0.203-0.154-0.401-0.313-0.593-0.478c-0.769-0.656-1.488-1.348-2.231-1.989c-0.369-0.33-0.711-0.667-1.093-0.988   c-0.407-0.31-4.084-2.907-8.256-3.412c-1.515-0.171-2.571-0.209-4.418-0.112c-5.811,0.623-7.211,1.759-7.211,1.759   c-0.383,0.177-0.717,0.467-0.948,0.856c-0.609,1.025-0.417,1.86,0.607,2.896c0,0,0.948,0.893,2.042,1.685   c4.698,3.404,5.768,4.117,7.974,5.025c1.176,0.484,3.21,0.69,3.497,0.786c0.277,0.097,0.575,0.167,0.876,0.253   c0.312,0.103,0.649,0.232,0.981,0.355c0.328,0.137,0.678,0.253,1.009,0.41c0.318,0.174,0.635,0.359,0.941,0.57   c0.157,0.1,0.311,0.208,0.459,0.324l0.149,0.111l0.11,0.106c0.324,0.31,0.649,0.624,0.98,0.942c0.616,0.62,1.443,1.343,1.771,1.899   c0.43,0.605,0.884,1.158,1.315,1.807c0.19,0.336,0.386,0.682,0.579,1.022c-1.004,1.088-2.83,2.692-5.122,3.039   c-2.23,0.337-4.759-1.966-4.759-1.966l0.579-3.428l-1.81,2.053l-2.905-2.831l1.182,3.048l-4.002-1.077l3.072,2.609l-3.26,1.209   l4.688,0.524c0,0,3.048,3.549,7.145,3.312c3.032-0.175,5.345-1.928,6.729-3.323c0.05,0.122,0.096,0.243,0.148,0.362   c1.229,3.246,1.896,6.737,2.283,10.371c0.023,0.459,0.076,0.918,0.12,1.38l0.072,0.696c0.006-0.134-0.004,0.358,0.014-0.289v0.055   v0.109v0.215l0.001,0.438c0,0.581,0.003,1.166,0.003,1.751l0.017,0.867l-0.05,0.625c-0.009,0.13-0.012,0.261-0.019,0.392   c-1.477-0.732-3.113-1.305-4.7-1.36c-2.856-0.099-5.63,2.591-6.914,4.042l-3.016-0.667l2.104,1.607l-5.754,1.369l4.712,0.251   l-4.408,2.305l5.551-0.954l-3.279,2.633l5.935-2.051c0,0,3.566-4.878,5.702-4.586c0.67,0.09,2.199,0.933,3.679,1.834   c-0.055,0.275-0.115,0.552-0.155,0.837c-0.665,3.998-2.174,8.206-4.858,11.788c-2.72,3.547-6.573,6.164-10.686,7.916   c-4.146,1.756-8.592,2.582-13.045,2.396c-4.308-0.151-8.541-1.202-12.193-2.985c-3.665-1.757-6.804-4.127-9.247-6.74   c-2.449-2.604-4.347-5.36-5.54-8.031c-0.163-0.328-0.322-0.65-0.48-0.968c-0.137-0.325-0.25-0.655-0.375-0.974   c-0.242-0.639-0.476-1.256-0.701-1.848c-0.361-1.213-0.623-2.35-0.893-3.364c-0.158-1.042-0.298-1.969-0.419-2.777   c-0.128-0.809-0.087-1.507-0.131-2.069c-0.045-1.124-0.07-1.723-0.07-1.723l-0.003-0.058c0-0.003,0-0.006,0-0.009   c-0.019-0.299-0.277-0.529-0.578-0.51c-0.301,0.018-0.53,0.276-0.512,0.578c0,0,0.036,0.618,0.104,1.778   c0.058,0.578,0.034,1.301,0.178,2.132c0.129,0.831,0.275,1.789,0.441,2.859c0.275,1.049,0.541,2.222,0.91,3.474   c0.219,0.617,0.447,1.258,0.681,1.924c0.122,0.331,0.232,0.675,0.368,1.013c0.155,0.332,0.313,0.669,0.471,1.011   c1.199,2.777,3.033,5.71,5.473,8.539c2.458,2.808,5.564,5.522,9.353,7.632c3.783,2.092,8.185,3.657,13.006,4.207   c4.665,0.541,9.812,0.197,14.702-1.32c4.929-1.498,9.521-4.201,13.744-7.522c4.187-3.36,7.995-7.6,10.58-12.642   c0.688-1.242,1.193-2.559,1.66-3.893c0.38-0.905,0.632-1.958,0.863-3.023c1.291-1.688,3.035-3.849,3.825-4.267   c1.907-1.006,5.376,2.354,5.376,2.354l6.276-0.112l-3.982-1.348L94.785,52.821z"/></g><text x="0" y="115" fill="#000000" font-size="5px" font-weight="bold" font-family="'Helvetica Neue', Helvetica, Arial-Unicode, Arial, Sans-serif">Created by Diego Naive</text><text x="0" y="120" fill="#000000" font-size="5px" font-weight="bold" font-family="'Helvetica Neue', Helvetica, Arial-Unicode, Arial, Sans-serif">from the Noun Project</text></svg>