<svg xmlns="http://www.w3.org/2000/svg" xmlns:xlink="http://www.w3.org/1999/xlink" version="1.1" x="0px" y="0px" viewBox="0 0 1920 1350" enable-background="new 0 0 1920 1080" xml:space="preserve"><path d="M852,486v-3.521c0,0.972-1.512,1.901-2.333,2.797c0.108,0.389,0.205,0.724,0.205,0.724H852z"/><path d="M1446.054,543.521c-1.49-16.513-3.013-33.599-3.726-50.393c-2.214-53.158-24.97-91.66-40.036-117.126  c-6.286-10.627-11.707-19.807-12.766-25.283c-8.359-43.492-57.542-92.675-105.106-140.238  c-48.503-48.503-133.877-77.479-188.374-77.479l-3.683,0.043C991.05,135.4,880.404,194.756,848.911,212.89l-1.123,0.626  c-30.748,2.182-69.001,6.977-98.464,12.01c-0.907-1.361-2.29-2.333-3.942-2.473c-1.966-0.205-3.694,0.659-4.806,2.182l-1.566,2.128  c-7.117,1.328-13.435,2.646-18.76,3.931c-0.702-0.886-1.652-1.566-2.786-1.879c-2.344-0.637-4.828,0.367-6.07,2.462l-1.296,2.203  c-1.512,0.464-3.024,0.929-4.655,1.458c-1.674-0.227-3.337,0.335-4.536,1.544c-3.413,1.188-6.944,2.462-10.66,3.899l0,0  c-1.901-0.788-4.115-0.41-5.659,0.972l-2.635,2.354c-4.795,1.998-9.677,4.18-14.515,6.469c-0.799-0.529-1.717-0.853-2.7-0.907  c-2.041-0.119-3.791,0.864-4.838,2.495l-0.875,3.1c-0.842,0.41-1.426,0.832-1.426,1.264v-5.605c0-2.689-3.067-4.968-5.735-5.346  c-2.592-0.335-5.735,1.264-6.491,3.834l-5.422,17.744c-0.842,0.486-1.825,0.972-2.657,1.458l-2.419-3.294  c-1.328-1.868-3.726-2.7-5.918-2.052c-2.192,0.626-3.78,2.57-3.92,4.849l-0.518,8.132c-0.011,0-0.022,0.011-0.022,0.011  l-10.13-5.368c-1.933-1.026-4.331-0.767-6.016,0.659c-1.685,1.426-2.333,3.737-1.631,5.832l1.793,5.378  c-0.551,0.097-1.102,0.259-1.609,0.497l-9.331-4.244c-2.192-1.004-4.806-0.421-6.372,1.436c-1.566,1.858-1.696,4.525-0.324,6.523  l2.02,2.948c-0.464,0.011-0.929,0.043-1.404,0.184c-1.998,0.616-3.294,2.322-3.596,4.309l-1.955-0.335  c-2.365-0.41-4.687,0.778-5.756,2.905c-1.069,2.128-0.605,4.72,1.123,6.35l4.093,3.856c-0.335,0.367-0.659,0.734-0.994,1.112  l-0.151-0.022l-3.013-4.612c-1.447-2.203-4.244-3.024-6.642-2.009c-2.408,1.037-3.715,3.65-3.11,6.21l0.572,2.43  c-0.13,0.248-0.313,0.464-0.41,0.734c-0.81,2.3,0.065,4.828,2.052,6.199l0.767,3.24c-0.486,1.339-0.972,3.251-1.458,3.305  l-7.776-8.424c-1.793-1.944-4.72-2.311-6.912-0.864c-2.214,1.436-3.056,4.255-2.02,6.664l6.134,14.202  c-0.756,0.994-1.501,1.966-2.246,2.948l-10.292-7.204c-2.182-1.512-5.141-1.231-6.998,0.691c-1.836,1.922-2.009,4.903-0.389,7.02  l8.77,11.448c-0.659,0.907-1.242,1.728-1.879,2.614l-13.1-4.871c-2.452-0.907-5.216,0.065-6.534,2.333  c-1.328,2.257-0.842,5.141,1.156,6.836l9.59,8.176c-0.065,0.086-0.14,0.194-0.194,0.281c-0.054,0.076-0.086,0.184-0.13,0.248  l-10.681-2.592c-2.376-0.605-4.849,0.518-6.016,2.668c-1.166,2.149-0.745,4.828,1.037,6.502l6.988,6.61l-14.072-1.458  c-2.29-0.205-4.504,1.026-5.465,3.143c-0.961,2.117-0.464,4.601,1.231,6.188l9.04,8.446c-11.772,5.13-31.86,17.161-37.444,41.062  c-3.91,16.729,1.123,28.447,6.037,35.327c7.916,11.113,19.58,16.049,25.499,16.664c4.547,0.464,7.614,1.598,8.629,3.197  c1.922,3.002-0.67,10.638-3.175,18.014c-0.313,0.929-0.637,1.922-0.95,2.884c-4.644,12.031-11.016,25.477-17.615,39.42  c-15.984,33.761-34.106,72.004-35.057,105.322c-1.253,43.902,28.652,72.803,48.438,91.919c6.016,5.81,11.21,10.832,14.58,15.206  c4.061,5.281,4.795,8.521,5.81,13.003c2.214,9.774,2.657,21.708,34.16,54.475l-7.798,3.154c-2.419,0.983-3.791,3.553-3.262,6.102  c0.529,2.549,2.614,4.19,5.422,4.298l21.244-0.518c1.771,1.728,3.402,3.359,5.335,5.206c0.745,0.713,1.512,1.35,2.268,2.03  l-3.791,6.955c-0.961,1.771-0.864,3.92,0.259,5.605c1.123,1.663,3.067,2.57,5.087,2.354l14.44-1.652  c4.352,3.283,8.748,6.35,13.176,9.169l-1.588,11.113c-0.292,2.084,0.659,4.169,2.43,5.303c1.771,1.134,4.05,1.123,5.843,0  l10.336-6.653c6.156,3.154,12.334,5.929,18.511,8.359l5.94,17.161c0.616,1.782,2.117,3.121,3.964,3.51  c1.847,0.41,3.758-0.194,5.054-1.566l10.325-10.886c5.908,1.544,11.74,2.851,17.496,3.92l1.89,5.119  c0.594,1.598,1.901,2.83,3.542,3.316c1.62,0.486,3.402,0.173,4.763-0.853l6.793-5.098c9.569,1.156,18.727,1.868,27.389,2.182  l3.154,6.199c0.972,1.912,2.905,3.251,5.098,2.938c1.804-0.086,3.272-1.199,4.19-2.7c0.054,0.043,0.086,0.108,0.14,0.151  c9.752,8.888,28.339,12.506,64.163,12.506c13.619,0,28.058-0.518,42.012-1.026c12.733-0.464,25.034-0.907,35.726-0.907  c46.462,0,113.346-15.876,149.094-35.37c26.287-14.321,54.756-16.87,97.88-20.736c9.169-0.81,18.986-1.696,29.56-2.754  c24.289-2.43,37.422-6.178,46.591-10.13l1.674,3.337c0.832,1.674,2.473,2.797,4.342,2.959l13.802,0.583  c2.344,3.661,4.601,10.606,5.605,16.6c0.367,2.203,2.063,3.953,4.255,4.396c0.356,0.076,0.713,0.108,1.08,0.108  c1.825,0,3.553-0.929,4.558-2.495c2.765-4.352,3.888-9.871,3.92-15.466c1.436,4.18,2.452,10.109,2.689,15.26  c0.097,2.225,1.566,4.169,3.683,4.882c0.562,0.184,1.134,0.27,1.706,0.27c1.577,0,3.121-0.691,4.169-1.976  c6.016-7.312,7.236-19.084,5.584-28.566l0.162,0.011c1.609,0.162,3.132-0.551,4.244-1.728c1.447,2.03,3.208,3.899,5.53,5.227  c4.093,2.333,7.873,14.591,9.137,22.129c0.367,2.203,2.052,3.953,4.255,4.406c0.356,0.076,0.713,0.108,1.08,0.108  c1.825,0,3.553-0.929,4.557-2.495c6.728-10.573,5.054-27.356,0.065-37.778c-0.745-1.544-1.577-2.894-2.452-4.158l0.994-0.994  c0.842-0.842,1.253-1.955,1.415-3.11c9.547-0.205,18.652-1.674,35.456-7.517c33.826-11.761,45.317-36.18,68.213-84.823  c4.525-9.601,9.536-20.25,15.314-32.065C1456.411,658.616,1451.152,600.102,1446.054,543.521z M654.565,280.843l9.331-14.666  c0.778,1.361,2.117,2.333,3.672,2.624c1.652,0.302,3.359-0.151,4.612-1.285l11.264-10.087l0.378,6.372  c0.13,2.3,1.728,4.277,3.953,4.892c2.192,0.594,4.59-0.259,5.897-2.16l4.363-6.394c0.637,1.037,1.631,1.858,2.851,2.268  c2.441,0.842,5.098-0.151,6.394-2.365l3.64-6.178c0.497,1.469,1.62,2.689,3.121,3.283c2.074,0.81,4.406,0.302,5.929-1.318  l5.486-5.832c0.529,1.318,1.566,2.419,2.948,2.992c2.3,0.961,4.957,0.227,6.415-1.793l9.212-12.496l3.283,6.556  c0.799,1.588,2.311,2.689,4.072,2.927c0.216,0.032,0.432,0.043,0.637,0.054c0.14,0.184,0.292,0.346,0.454,0.508  c1.706,1.674,4.309,2.03,6.404,0.875l6.426-3.575c0.022,1.199,0.454,2.387,1.274,3.359c1.663,1.987,4.504,2.484,6.772,1.231  l11.934-6.718c-0.713,1.804-0.432,3.888,0.842,5.443c1.566,1.901,4.212,2.484,6.437,1.469l4.817-2.225l-0.896,1.069  c-1.663,1.976-1.696,4.838-0.086,6.847c1.609,2.02,4.428,2.603,6.696,1.426l7.927-4.104l-3.305,4.234  c-1.458,1.858-1.534,4.439-0.205,6.383c1.339,1.944,3.78,2.786,6.026,2.117l12.409-3.78l-6.653,4.439  c-2.279,1.523-3.056,4.504-1.814,6.955c1.253,2.441,4.126,3.553,6.696,2.603l25.337-9.428l-2.473,2.97  c-1.48,1.782-1.663,4.288-0.464,6.264c1.199,1.976,3.51,2.97,5.778,2.473l3.586-0.788l-0.043,0.022  c-2.128,1.123-3.251,3.532-2.754,5.886s2.495,4.104,4.903,4.277l12.431,0.896l-10.865,1.804c-2.7,0.454-4.633,2.84-4.504,5.573  c0.13,2.722,2.268,4.936,4.99,5.141l26.222,1.944l-17.053,5.054c-2.668,0.788-4.288,3.456-3.78,6.188  c0.508,2.732,3.089,4.655,5.778,4.374l31.406-2.754l-11.642,5.983c-2.354,1.21-3.478,3.942-2.678,6.458  c0.81,2.516,3.359,4.05,5.94,3.683l3.834-0.572l-5.864,2.7c-2.365,1.091-3.607,3.704-2.97,6.232c0.637,2.527,3.056,4.18,5.573,4.061  l14.062-0.886l-10.13,3.856c-2.452,0.94-3.877,3.499-3.37,6.08c0.421,2.16,2.106,3.812,4.19,4.244l-3.294,0.832  c-1.037,0.248-1.922,0.799-2.614,1.523c-0.054-0.54-0.205-1.08-0.443-1.598c-0.886-1.966-2.83-3.175-4.925-3.175  c-0.356,0-0.724,0.032-1.091,0.108l-10.487,2.16l9.59-6.944c2.236-1.609,2.884-4.655,1.523-7.042c-1.361-2.398-4.32-3.38-6.836-2.29  l-17.237,7.452c0.076-1.026-0.13-2.074-0.648-3.024c-1.08-1.998-3.305-3.154-5.519-2.754l6.556-6.221  c1.89-1.782,2.236-4.666,0.832-6.847c-1.415-2.192-4.19-3.056-6.577-2.074c-2.484,1.004-5.119,2.052-7.69,3.046  c1.123-1.231,2.257-2.462,3.37-3.65c1.804-1.933,1.933-4.882,0.324-6.977c-1.62-2.084-4.504-2.711-6.826-1.469l-0.335,0.184  c0.13-1.188-0.14-2.43-0.821-3.499c-1.372-2.138-4.039-3.013-6.426-2.149l-7.43,2.754l3.013-3.37c1.728-1.933,1.836-4.817,0.27-6.88  c-1.577-2.052-4.385-2.711-6.707-1.555l-10.271,5.141c1.069-2.182,0.551-4.86-1.35-6.48c-2.095-1.793-5.216-1.717-7.225,0.194  l-5.789,5.497l1.264-4.136c0.68-2.246-0.162-4.676-2.095-6.016c-1.933-1.35-4.504-1.264-6.361,0.162l-6.988,5.378l4.73-8.878  c1.21-2.268,0.648-5.087-1.339-6.718c-1.987-1.631-4.849-1.631-6.847,0l-3.899,3.186l1.868-3.899c1.102-2.3,0.454-5.054-1.566-6.61  c-2.02-1.555-4.849-1.501-6.793,0.162l-1.674,1.426c-0.27-0.842-0.756-1.631-1.436-2.268c-2.03-1.922-5.206-1.966-7.301-0.097  l-17.442,15.574l2.635-15.811c0.41-2.473-0.929-4.903-3.24-5.864c-2.3-0.95-4.979-0.227-6.458,1.814l-13.338,18.414l-0.648-6.502  c-0.227-2.3-1.912-4.212-4.169-4.73c-2.279-0.529-4.601,0.464-5.81,2.441L700.8,313.934v-10.195c0-2.646-3.467-4.903-6.08-5.335  c-2.57-0.421-5.918,1.112-6.761,3.618l-6.296,17.734l5.789-26.168c0.583-2.549-0.842-5.152-3.24-6.167  c-2.387-1.037-5.249-0.184-6.685,2.02l-3.672,5.584l1.102-6.934c0.421-2.635-1.145-5.184-3.683-6.005  c-2.549-0.821-5.303,0.335-6.491,2.722l-9.266,18.544l-1.004-22.453C654.533,280.886,654.554,280.865,654.565,280.843z   M914.791,379.112l9.256,2.495l-14.537,1.35c-0.67,0.065-1.296,0.248-1.868,0.529c0.454-0.918,0.648-1.987,0.508-3.067  c-0.346-2.635-2.549-4.633-5.216-4.709l-23.695-0.626l12.344-9.256c0.248-0.184,0.475-0.389,0.68-0.605  c0.292,2.56,2.354,4.558,4.936,4.763l14.364,1.145c-0.432,0.734-0.691,1.577-0.745,2.462  C910.666,376.153,912.329,378.443,914.791,379.112z M923.345,415.465l10.076,12.474l-16.038-5.346  c0.648-0.842,1.058-1.89,1.123-3.024c0.14-2.797-1.868-5.238-4.644-5.627l-8.586-1.199c1.804-0.929,2.992-2.84,2.916-4.979  c-0.086-2.84-2.376-5.119-5.216-5.216l-8.996-0.302l8.057-3.877c2.171-1.048,3.391-3.402,2.981-5.789  c-0.41-2.387-2.344-4.19-4.741-4.45l-1.652-0.184l5.681-1.652c0.302-0.086,0.594-0.205,0.864-0.335  c-0.324,0.67-0.518,1.426-0.551,2.214c-0.076,2.722,1.89,5.087,4.59,5.497l5.659,0.864c-0.4,0.572-0.691,1.231-0.842,1.955  c-0.508,2.387,0.637,4.817,2.808,5.929l8.888,4.568c-1.177,0.432-2.203,1.264-2.851,2.398  C921.757,411.318,921.952,413.737,923.345,415.465z M918.096,665.323c-0.043-18.187-3.046-37.087-11.545-48.136  c-0.184-0.227-0.346-0.454-0.486-0.659c5.756-0.335,17.788,2.527,26.266,4.946l-12.204,12.204c-1.102,1.102-1.674,2.614-1.577,4.169  c0.097,1.555,0.864,2.981,2.095,3.931l14.418,11.092L918.096,665.323z M930.181,685.789l-16.394,17.572  c1.933-7.301,3.51-17.604,4.072-28.771L930.181,685.789z M923.939,522.202c-18.954,11.221-50.263,24.516-54.162,9.547  c-5.011-19.213-14.418-33.275-23.846-43.297c0-0.011,0.011-0.022,0.011-0.032c0.454-0.81,2.992-1.631,3.251-2.484  c0.076-0.216,0.281-0.432,0.475-0.659c-0.41-1.458-1.447-5.065-2.052-6.426c5.411-0.508,11.232-2.754,11.902-8.327  c0.054-0.464-0.151-1.436-0.194-2.041c-0.032-0.605-0.324-1.512-0.68-2.257l12.431,0.13c0.054,0.011,0.076,0.238,0.119,0.238  c2.765,0.032,5.497-1.825,5.486-4.849c0-0.27-0.032,0.594-0.065,0.335l0.767,2.322c0.065,0,0.151,0,0.238,0  c1.944,0,4.288-3.672,5.108-5.681l17.021-0.032c0.27,0.032,0.518,0.032,0.832,0.043c0.626-0.011,1.253-0.173,1.847-0.41  c54.27,13.295,76.388,43.826,68.45,41.44C960.562,496.67,941.197,511.985,923.939,522.202z M910.007,429.116  c-1.134,0.54-2.074,1.48-2.614,2.7c-0.454,1.015-0.562,2.106-0.378,3.132l-1.739-0.216c1.037-0.896,1.728-2.171,1.858-3.618  c0.238-2.743-1.62-5.227-4.32-5.767l-1.199-0.238l8.91-0.313c-0.108,0.194-0.216,0.4-0.302,0.605  C909.683,426.611,909.64,427.928,910.007,429.116z M755.47,577.13c3.316-10.886-0.194-21.406-3.132-23.285  c-2.516-1.598-3.262-4.936-1.652-7.452c1.598-2.506,4.946-3.24,7.452-1.652c8.392,5.346,11.902,21.611,7.657,35.543  c-2.408,7.906-10.994,26.017-39.02,26.028c-0.518,0-1.048-0.011-1.588-0.022c-2.981-0.076-5.346-2.549-5.27-5.53  c0.076-2.981,2.495-5.519,5.53-5.27C745.663,596.063,752.845,585.77,755.47,577.13z M736.559,556.848  c4.266-2.84,8.91-3.37,10.368-1.188c1.458,2.192-0.821,6.264-5.087,9.104c-4.266,2.84-8.91,3.37-10.368,1.188  C730.014,563.771,732.293,559.688,736.559,556.848z M634.769,285.509l0.086-1.339l1.48,2.074c0.821,1.156,2.084,1.728,3.434,1.976  l-2.992,8.748l-1.015-7.387c-0.151-1.112-0.68-2.063-1.393-2.851C634.499,286.319,634.736,285.952,634.769,285.509z   M623.148,292.745l-1.922-5.789l3.931,2.084l-4.925,17.744l-1.858-7.063c1.188-0.076,2.344-0.421,3.262-1.264  C623.234,297.032,623.828,294.786,623.148,292.745z M816.727,907.124c0.14-0.032,0.281-0.076,0.41-0.108l0.097,0.108  C817.073,907.135,816.889,907.135,816.727,907.124z M825.713,869.659c-1.469,0.886-2.43,2.419-2.592,4.136l-1.944,21.373  l-11.286-13.079c-1.22-1.393-3.067-2.084-4.903-1.804c-1.836,0.281-3.391,1.49-4.136,3.186l-10.13,23.382l-22.226-23.879  c-1.037-1.112-2.473-1.717-3.953-1.717c-0.346,0-0.68,0.032-1.026,0.097c-1.825,0.356-3.348,1.62-4.018,3.37l-5.962,15.52  l-8.942-17.572c-0.724-1.426-2.041-2.462-3.596-2.819c-1.544-0.346-3.197-0.011-4.46,0.94l-25.153,18.868l-8.327-22.604  c-0.648-1.75-2.149-3.046-3.985-3.424c-1.793-0.356-3.715,0.227-5,1.577l-21.751,22.95l-11.016-31.828  c-0.54-1.577-1.771-2.808-3.337-3.348c-1.566-0.551-3.294-0.324-4.687,0.562l-18.954,12.193l2.462-17.204  c0.238-1.652-0.313-3.326-1.48-4.525c-1.166-1.199-2.83-1.771-4.482-1.598l-25.769,2.938l7.398-13.565  c0.918-1.685,0.875-3.758-0.13-5.4c-1.004-1.631-2.884-2.7-4.741-2.581l-12.647,0.302l15.962-6.404c2.041-0.832,3.499-2.797,3.499-5  v-7.528l30.305,7.614c1.836,0.454,3.726-0.086,5.065-1.426l10.627-10.66l29.516,14.764c1.933,0.961,4.288,0.67,5.929-0.734  c9.148-7.862,20.401-17.032,22.108-17.96c7.636-2.02,7.873-6.685,7.625-8.597c-1.598-12.312-44.42-17.777-60.426-17.777  c-2.7,0-5.314,0.097-7.83,0.292c-12.928,1.037-24.224,1.566-33.566,1.566c-26.017,0-32.303-3.931-36.904-6.804  c-2.754-1.706-5.594-3.478-10.519-4.028c-25.963-2.894-53.978-30.305-80.989-79.261c-2.246-4.072-2.128-10.217,0.313-16.459  c4.018-10.271,12.949-18.382,24.527-22.237c9.374-3.132,15.228-16.643,23.328-35.327c6.858-15.811,14.623-33.718,25.542-46.818  c15.498-18.598,22.982-42.779,29.581-64.12c3.618-11.696,7.042-22.756,11.329-31.331c2.02-4.028,3.964-8.64,1.652-12.377  c-0.745-1.21-2.549-3.24-6.242-3.24c-1.901,0-3.942,0.551-6.091,1.134c-2.041,0.562-4.363,1.188-6.113,1.188  c-1.242,0-1.469-0.292-1.577-0.443c-0.572-0.767-3.11-5.681,3.251-27.4c0.551-1.89,2.16-7.776,3.888-14.137l2.711,10.822  c0.583,2.344,2.646,4.007,5.054,4.082c2.452,0.248,4.579-1.447,5.324-3.737l4.838-15.001c0.68,0.734,1.588,1.296,2.624,1.555  c2.495,0.659,5.087-0.583,6.199-2.894l8.327-17.345c0.184,2.106,1.577,3.931,3.607,4.633c2.171,0.756,4.579,0.054,6.005-1.75  l11.891-15.023l-1.188,3.942c-0.68,2.29,0.216,4.763,2.225,6.07c2.02,1.318,4.633,1.156,6.458-0.41l27.518-23.447  c-3.197,11.297-6.35,24.98-5.432,32.389c0.54,4.309,2.905,11.027,5.886,19.548c6.264,17.863,15.746,44.874,12.712,64.055  c-1.112,7.009-1.534,12.388-1.89,16.902c-1.069,13.716-1.393,17.852-21.46,39.042c-4.568,4.817-8.932,9.223-13.057,13.392  c-20.93,21.146-37.454,37.843-45.554,74.261c-3.791,17.064-2.257,30.272,4.558,39.269c7.484,9.882,18.522,10.606,19.289,10.638  c14.494,0,25.585-4.612,33.545-9.936c0.238,0.745,0.648,1.447,1.199,2.03c1.382,1.48,3.478,2.03,5.454,1.501l1.793-0.529  c-0.821,1.166-1.145,2.646-0.864,4.115s1.156,2.722,2.365,3.499l-20.563,7.409c-2.117,0.767-3.542,2.765-3.575,5.022  c-0.022,2.246,1.35,4.277,3.445,5.098l10.616,4.136l-12.82,2.56c-2.398,0.475-4.18,2.506-4.331,4.957  c-0.151,2.452,1.361,4.687,3.683,5.465l8.996,2.992l-5.962,4.644c-1.598,1.242-2.376,3.294-1.987,5.281  c0.389,2.009,1.858,3.607,3.823,4.169c0.529,0.162,53.946,15.509,83.992,32.044c11.815,6.502,21.157,11.2,28.307,14.785  c7.538,3.802,14.656,7.376,15.606,8.5c0.734,2.203,3.164,4.19,5.486,4.19c4.385,0,5.594-3.726,7.117-8.446  c2.117-6.523,6.512-20.131,13.867-23.285c1.285,0.302,3.64,2.678,6.167,6.005l-5.432-0.961c-2.246-0.367-4.558,0.691-5.681,2.722  c-1.112,2.03-0.799,4.558,0.778,6.253l6.836,7.42l-6.75,2.419c-1.404,0.497-2.538,1.555-3.132,2.916  c-0.594,1.361-0.605,2.916-0.022,4.277l7.214,17.021c0.68,1.598,2.095,2.786,3.802,3.164c1.577,0.346,3.37,0.529,5.324,0.529  c16.578,0,51.959-14.591,53.827-31.504c1.339-12.02,16.124-51.98,23.728-71.183l8.197,20.509l-14.018,22.442  c-1.296,2.063-1.037,4.741,0.626,6.523l16.07,17.323l-21.589,16.502c-1.318,1.015-2.095,2.57-2.117,4.234  c-0.022,1.663,0.724,3.24,2.02,4.277l23.015,18.5l-17.82,11.372c-1.75,1.123-2.7,3.143-2.452,5.206l2.311,18.965l-27.119-13.565  c-1.76-0.875-3.856-0.734-5.465,0.378c-1.62,1.112-2.506,3.002-2.322,4.968l1.998,20.984l-15.228-10.476  c-1.89-1.296-4.417-1.264-6.264,0.108c-1.847,1.372-2.635,3.758-1.944,5.962l4.288,13.727l-22.853-9.493  C828.996,868.644,827.192,868.774,825.713,869.659z M1409.096,529.2h5.422c2.214,0,4.212-3.316,5.022-5.378  c0.81-2.063,0.281-5.389-1.339-6.912l-21.006-20.099l2.506-12.766c0.486-2.441-0.745-5.011-3.002-6.07l-49.529-23.274  c-2.473-1.156-5.368-0.335-6.836,1.944c-1.469,2.279-1.004,5.281,1.069,7.02l17.032,14.332l-11.707-0.648  c-1.912-0.076-3.715,0.799-4.774,2.376c-1.058,1.577-1.21,3.596-0.4,5.324l10.498,22.162l-46.148,2.646  c-2.516,0.14-4.612,2.02-5.022,4.504c-0.41,2.484,0.961,4.936,3.305,5.886l40.284,16.308l-75.492,1.134  c-2.657,0.043-4.882,2.009-5.26,4.633c-0.367,2.635,1.22,5.152,3.758,5.929l48.254,14.839l-15.693,8.726l-26.622,1.49  c-2.3,0.13-4.266,1.685-4.892,3.888c-0.626,2.203,0.194,4.579,2.063,5.908l33.35,23.166l-30.067-1.469c-0.065,0-0.13,0-0.184,0  c-2.16,0-4.126,1.793-4.979,3.802c-0.864,2.052-0.378,5.67,1.231,7.225L1302.079,648h-43.87c-2.538,0-4.73,0.788-5.27,3.272  c-0.54,2.473,0.724,4.504,3.035,5.562l31.417,14.029l-51.192,3.143c-2.581,0.173-4.698,2.084-5.011,4.676  c-0.313,2.57,1.242,4.979,3.726,5.767l47.11,14.98l-31.612,5.519c-2.257,0.389-4.007,2.16-4.396,4.406  c-0.378,2.257,0.691,4.504,2.689,5.616l25.369,14.17l-23.447,15.239c-1.804,1.166-2.743,3.305-2.387,5.432  c0.356,2.117,1.955,3.823,4.039,4.331l35.629,8.716c-1.08,0.659-1.922,1.663-2.333,2.927c-0.702,2.117-0.032,4.45,1.696,5.864  l16.859,13.889l-20.39,2.916c-2.16,0.302-3.92,1.89-4.46,4.007c-0.54,2.117,0.238,4.342,1.998,5.659l6.566,4.914l-17.507,0.842  c-2.246,0.108-4.19,1.577-4.882,3.726c-0.691,2.149,0.011,4.482,1.76,5.886l5.962,4.741c-0.022,0.335-0.162,0.637-0.119,0.972  c-1.544,0.173-3.272,0.389-4.946,0.594l-3.748-2.592c-1.76-1.231-4.104-1.296-5.908-0.151c-1.588,0.983-2.365,2.722-2.387,4.547  c-1.998,0.378-3.899,0.778-5.648,1.188l-7.096-6.642c-1.685-1.577-4.223-1.922-6.264-0.799c-2.041,1.112-3.143,3.391-2.743,5.681  l1.166,6.631c-4.072,1.782-7.387,3.65-10.649,5.497c-1.112,0.626-2.214,1.253-3.337,1.868c-1.75-0.119-3.488,0.4-4.622,1.782  c-0.151,0.184-0.14,0.443-0.27,0.648c-7.765,3.553-18.63,6.75-41.494,9.04c-10.498,1.058-20.239,1.922-29.344,2.732  c-45.803,4.104-76.075,6.815-106.294,23.285c-32.54,17.755-96.077,32.735-138.758,32.735c-10.93,0-23.49,0.454-36.504,0.918  c-11.092,0.4-22.356,0.734-33.275,0.875l0.367-4.007c8.694-2.797,17.626-6.415,26.622-10.714l2.03,0.842  c1.922,0.778,4.158,0.41,5.713-1.004c1.242-1.145,1.663-2.786,1.534-4.439c2.419-1.253,4.828-2.581,7.236-3.899l1.555,1.069  c1.728,1.199,3.996,1.274,5.8,0.205c1.804-1.069,2.84-3.078,2.635-5.173l-0.162-1.674c6.134-3.596,12.15-7.312,18.014-11.113  l7.376,3.683c1.793,0.896,3.91,0.724,5.53-0.421c1.62-1.134,2.484-3.089,2.246-5.065l-0.94-7.69  c28.609-19.71,50.954-38.545,55.847-42.757c20.099-17.323,37.39-25.38,54.389-25.38c8.78,0,16.513,2.084,23.998,4.126  c8.456,2.3,16.459,4.46,24.98,3.424c2.106-0.238,3.877-1.706,4.525-3.748c0.637-2.03,0.021-4.244-1.577-5.648l-19.062-16.88  l28.544,7.571c2.214,0.562,4.601-0.302,5.886-2.236c1.274-1.933,1.177-4.45-0.227-6.286l-11.081-14.353l20.412-0.67  c2.495-0.086,4.622-1.879,5.119-4.331c0.497-2.452-0.756-4.914-3.024-5.972l-8.618-3.974l13.047-1.21  c2.16-0.205,3.985-1.674,4.644-3.758c0.659-2.063,0.011-4.32-1.642-5.735l-15.217-12.96l23.674,1.814  c2.419,0.335,4.676-1.274,5.497-3.553c0.821-2.29,0.011-4.838-1.987-6.242c-9.277-6.523-19.742-13.759-28.21-19.343  c7.744-0.281,17.269-0.562,26.266-0.745c2.387-0.054,4.45-1.663,5.087-3.953c0.648-2.3-0.302-4.741-2.322-6.016l-17.28-10.876  l26.33,2.246c2.441,0.173,4.86-1.361,5.616-3.802c0.745-2.43-0.292-5.054-2.516-6.296l-39.118-21.902l38.653-8.338  c2.462-0.529,4.234-2.689,4.266-5.195c0.032-2.516-1.674-4.73-4.126-5.314l-18.025-4.396l17.118-4.752  c2.452-0.67,4.082-2.959,3.942-5.497s-2.02-4.633-4.525-5.033l-18.814-3.067l23.414-5.983c2.225-0.572,3.845-2.484,4.039-4.774  c0.205-2.29-1.091-4.45-3.186-5.389l-26.503-11.783l21.503-10.4c2.052-0.994,3.262-3.164,3.013-5.432  c-0.238-2.268-1.879-4.136-4.093-4.676l-14.958-3.618l8.057-2.473c2.311-0.713,3.866-2.884,3.812-5.303  c-0.065-2.43-1.739-4.504-4.093-5.098c-7.074-1.771-14.915-3.694-21.611-5.26c5.508-2.56,12.107-5.54,18.349-8.294  c2.473-1.091,3.758-3.845,3.002-6.448c-0.756-2.592-3.24-4.255-6.005-3.823l-13.716,2.074l31.277-24.473  c1.901-1.49,2.581-4.061,1.663-6.296c-0.918-2.236-3.078-3.575-5.616-3.316l-24.786,2.819l23.393-16.794  c1.922-1.382,2.722-3.856,1.966-6.102c-0.745-2.246-2.722-3.618-5.249-3.683l-24.322,0.626l14.44-11.664  c1.739-1.404,2.43-3.737,1.739-5.864c-0.68-2.128-2.614-3.607-4.849-3.726l-1.253-0.065l12.938-7.398  c2.193-1.253,3.229-3.866,2.473-6.286c-0.745-2.419-3.121-3.942-5.605-3.791c-0.281,0.022-21.222,1.728-36.731,2.657  c7.474-4.828,17.302-10.865,26.525-16.362c2.29-1.361,3.251-4.201,2.236-6.674c-0.994-2.473-3.618-3.845-6.253-3.218l-22.367,5.346  l21.73-16.427c1.966-1.48,2.668-4.104,1.728-6.372c-0.94-2.268-3.37-3.694-5.724-3.283l-6.977,0.961l21.589-11.48  c2.171-1.156,3.294-3.629,2.722-6.026c-0.572-2.387-2.689-4.093-5.151-4.147l-29.7-0.594l25.823-12.906  c2.344-1.177,3.51-3.866,2.765-6.372c-0.745-2.506-3.24-4.136-5.81-3.823l-12.161,1.426c2.408-0.767,4.806-1.523,7.171-2.257  c2.668-0.832,4.266-3.564,3.683-6.296c-0.605-2.722-3.035-4.644-5.94-4.223l-27.713,3.402l19.44-9.72  c2.354-1.177,3.51-3.866,2.754-6.383c-0.745-2.506-3.121-4.126-5.821-3.812l-22.928,2.776l18.241-6.804  c2.527-0.94,3.964-3.596,3.38-6.232c-0.594-2.635-2.862-4.493-5.724-4.201l-42.714,3.564l22.637-16.513  c2.063-1.512,2.797-4.277,1.717-6.61c-1.058-2.322-3.575-3.596-6.124-3.002l-14.148,3.294l8.014-8.856  c1.534-1.696,1.836-4.18,0.734-6.188c-1.091-2.009-3.262-3.143-5.594-2.765l-23.123,3.65l7.765-3.78  c2.43-1.188,3.607-3.985,2.765-6.545c-0.842-2.549-3.391-4.147-6.102-3.618l-40.9,7.549l26.287-17.334  c2.268-1.501,3.067-4.439,1.879-6.88s-4.018-3.607-6.577-2.743l-36.742,12.442l9.958-8.348c1.987-1.663,2.506-4.504,1.253-6.761  c-1.264-2.257-3.91-3.294-6.404-2.516l-16.924,5.519l8.456-6.404c2.149-1.631,2.765-4.612,1.436-6.966  c-1.35-2.354-4.212-3.359-6.728-2.344l-15.325,6.188c1.177-1.577,1.447-3.704,0.572-5.551c-1.102-2.322-3.661-3.532-6.178-2.938  l-45.954,11.394c47.693-23.306,122.461-53.568,191.948-55.188l3.175-0.032c50.112,0,128.563,26.611,173.102,71.15  c45.252,45.263,92.059,92.059,99.166,129.049c1.771,9.169,7.787,19.343,15.39,32.206c14.796,25.024,35.068,59.292,37.055,107.028  c0.648,15.628,1.998,31.223,3.359,46.451L1409.096,529.2z M1425.102,551.794c0.162,1.804,0.324,3.596,0.475,5.4l-8.662-3.467  L1425.102,551.794z M1426.981,574.387c0.421,5.702,0.767,11.372,1.048,17.01l-10.033-9.396L1426.981,574.387z M1428.461,620.028  c-0.896-1.523-1.782-2.927-2.592-4.093l2.678-1.458C1428.536,616.334,1428.504,618.181,1428.461,620.028z"/><path d="M623.688,728.093c-1.231-2.063-3.672-3.013-6.026-2.452c-0.281,0.076-30.132,7.981-44.68,7.052  c-9.126-0.605-26.87-14.008-35.91-22.313c-1.998-1.836-5.011-1.912-7.085-0.194c-2.074,1.706-2.581,4.698-1.166,6.988  c0.821,1.339,20.369,32.778,43.643,33.523l3.218,0.054c31.838,0,46.721-15.552,47.336-16.222  C624.649,732.791,624.93,730.145,623.688,728.093z"/><text x="0" y="1095" fill="#000000" font-size="5px" font-weight="bold" font-family="'Helvetica Neue', Helvetica, Arial-Unicode, Arial, Sans-serif">Created by Stewart Lamb Cromar</text><text x="0" y="1100" fill="#000000" font-size="5px" font-weight="bold" font-family="'Helvetica Neue', Helvetica, Arial-Unicode, Arial, Sans-serif">from the Noun Project</text></svg>