<svg xmlns="http://www.w3.org/2000/svg" xmlns:xlink="http://www.w3.org/1999/xlink" version="1.1" x="0px" y="0px" viewBox="0 0 80 100" enable-background="new 0 0 80 80" xml:space="preserve"><path d="M35.3,69.1c-0.3-0.2-0.7-0.4-0.8-0.7c-0.9-2.2-3-2-4.7-2.4c-1.6-0.3-3.4-0.1-5-0.1c-0.3,0.8-0.5,1.6-0.8,2.4  c-0.4,0.9-1.2,0.5-1.9,0.5c-0.2,0-0.4-0.7-0.6-1.1c-0.2-0.3-0.4-0.6-0.5-1c-0.1-0.4-0.2-0.8-0.2-1.2c0.1-0.1,0.2-0.1,0.3-0.2  c0.5,0.7,1.1,1.4,1.6,2.2c0.1,0,0.1,0,0.2-0.1c-0.1-0.5-0.2-1-0.5-1.4c-0.6-1.2-0.6-1.2-0.2-2.2c-0.7-0.5-1.2-1.2-1.9-1.4  c-0.9-0.3-1.8-0.2-2.8-0.3c-0.3,0-0.5-0.2-0.8-0.3c0.2-0.2,0.4-0.3,0.6-0.5c0.4-0.5,0.8-0.9,1.3-1.5c-0.8-0.7-1.1-1.9-2.2-2.6  c-0.8-0.5-1.2-1.6-1.8-2.4c-0.4-0.6-0.8-1.1-1.1-1.7c-0.3-0.5-0.5-1-0.7-1.5c-0.2-0.7-0.4-1.5-0.2-2.2c0.2-1,0.7-2,1.1-2.9  c0.1-0.4,0.2-0.8,0.3-1.2c-0.1,0-0.2-0.1-0.2-0.1c-0.3,0.4-0.6,0.8-1,1.2c-0.3-1.3-0.3-1.3,0.8-2.2c0.2-0.2,0.3-0.5,0.4-0.7  c0.2-0.2,0.3-0.4,0.5-0.6c0.1,0,0.2,0.1,0.3,0.1c-0.2,0.5-0.5,1.1-0.7,1.6c0.3,0.5,0.6,1.1,0.8,1.7c0.1,0.2,0,0.6-0.1,0.8  c-0.4,0.7-0.8,1.3-1.2,2c-0.1,0.1-0.1,0.3,0.1,0.6c0.3-0.4,0.7-0.7,1.1-1.1c0,0.3,0,0.6,0,1.1c0.4-0.7,0.7-1.2,1-1.7  c0.1,0,0.2,0.1,0.3,0.1c-0.2,0.6-0.4,1.2-0.6,1.9c0.3,0,0.5,0.1,0.7,0.1c-0.3,0.6-0.7,1.2-0.9,1.8c-0.2,0.6-0.3,1.2-0.4,1.8  c0.1,0,0.2,0,0.3,0.1c0.3-0.7,0.6-1.5,0.9-2.2c0.1,0,0.2,0.1,0.3,0.1c0,0.5,0,1.1,0,1.4c-0.3,0.7-0.6,1.3-0.9,1.8  c0.1,0.1,0.2,0.2,0.3,0.2c0.4-0.4,0.8-0.8,1.4-1.4c-0.1,1.1-0.2,2-0.3,2.9c0.1,0,0.2,0,0.3,0c0.2-0.3,0.5-0.7,0.7-1.1  c0.5,0.8,0.9,1.4,1.3,2.1c0.1-0.1,0.3-0.1,0.6-0.2c0.3,0.7,0.7,1.3,1.1,2.2c0.2-0.7,0.3-1.1,0.4-1.7c0.6,1,0.4,2.3,1.8,2.6  c-0.3-0.9-0.5-1.7-0.8-2.5c0.1,0,0.2-0.1,0.3-0.1c0.8,0.7,0.4,2.3,1.9,2.5c-0.2-0.5-0.4-1-0.6-1.5c0.1,0,0.2-0.1,0.2-0.1  c0.5,0.7,1.1,1.5,1.6,2.2c0.1-0.1,0.3-0.2,0.4-0.2c-0.3-0.8-0.5-1.5-0.8-2.4c1.1,0.4,0.9,1.7,1.8,2.4c-0.2-0.7-0.4-1.3-0.5-1.9  c0.1,0,0.2-0.1,0.3-0.1c0.4,0.6,0.7,1.2,1.2,2.1c0.6-0.7,0.9-1.2,1.4-1.7c0,0,0.2,0.1,0.3,0.3c0.1,0.1,0.2,0.2,0.3,0.4  c0.1-0.5,0.2-0.8,0.3-1.2c0.2,0.1,0.5,0.3,0.9,0.5c-0.2-0.6-0.4-1-0.6-1.5c-0.7-1.8-1.5-3.6-2.2-5.5c-0.1-0.3-0.3-0.7-0.4-1  c-0.3-1,0.2-2,0.9-2.1c0.1-0.6,0.3-1.1,0.4-1.6c0.1,0,0.3,0,0.4,0c0.1,0.7,0.2,1.3,0.3,2.1c-0.1,0-0.4,0-0.5,0  c-0.1,1.5-0.7,3.1,0.9,4.3c-0.5,0.1-0.7,0.1-0.9,0.1c0,0.1,0.1,0.2,0.1,0.2c0.5,0.6,1.1,1.1,1.5,1.7c0.6,1,1.2,2,1.5,3  c0.6,2.1,1,4.2,1.3,6.3c0.2,1.2,0.2,2.4,0.9,3.5C35.2,68.8,35.2,69,35.3,69.1L35.3,69.1z"/><path d="M44.9,30.6c-1-0.2-1.8-0.4-2.7-0.5c0.3,0.8,0.5,1.4,0.8,2.1c-0.1,0.1-0.3,0.2-0.4,0.3c-0.8-0.5-1.6-0.9-2.4-1.4  c0.1-0.1,0.1-0.2,0.2-0.3c0.6,0.2,1.1,0.5,1.7,0.7c-0.8-2.1-2.3-3.6-3.7-5.2c-1.9-2.2-3.7-4.7-4.3-7.7c-0.2-1.3-0.5-2.7-0.9-4  c-0.5-1.6-0.3-3.2,0.1-4.7c0.1-0.5,0.8-1,1.3-1.2c0.4-0.1,1.1,0.2,1.4,0.6c0.8,1,1.5,2,2.2,3c0.9,1.3,1.9,2.6,2.9,3.8  c0.9,1.1,2,2.1,3,3.2c0.4,0.4,0.6,1,0.9,1.6c0.1-0.2,0.4-0.3,0.4-0.5c0-1.1,0.2-2.2,0-3.3c-0.3-2.3-0.7-4.5,0.5-6.6  c0.4-0.7,1.2-1.2,1.9-1.5c0.5-0.2,1.6,1.2,1.7,2.1c0.1,0.7,0.1,1.4,0.3,2c0.3,1,0.4,2.1,1,2.8c1.7,2.4,2.3,5,2.1,7.9  c0,0.4,0,0.8,0.2,1.1c0.2,0.3,0.6,0.4,1,0.6c0.1,0,0.3-0.1,0.4,0c0.5,0.2,1,0.4,1.5,0.5c-0.5,0.1-0.9,0.4-1.4,0.4  c-1.4,0.1-2.8,0.1-4.1,0c-0.5,0-1.1-0.4-1.7-0.7c-0.3,0.3-0.8,0.5-1.2-0.3c0-0.1-0.1-0.2-0.2-0.2c-1.7-0.1-1.8-1.6-2.4-2.7  c-0.5-0.9-1.2-1.9-1.9-2.6c-2.5-2.3-4.2-5.1-5.8-8c-0.5-0.9-0.9-1.8-2-2.1c-0.3-0.1-0.7,0.1-1,0.1c0.6,0.6,1.2,0.9,1.5,1.4  c1.7,2.6,2.8,5.5,3.4,8.7c0.4,2.3,1.6,4.4,2.6,6.5c0.2,0.5,0.9,0.8,1.4,1.2C43.9,28.4,44.7,29.1,44.9,30.6z M48.1,10  c-0.2,0-0.3,0-0.5,0c-0.3,0.5-0.8,0.9-1,1.5c-0.8,1.9-0.7,3.8,0,5.6c0.4,1.2,0.5,2.2,0.3,3.4c-0.1,0.9-0.2,1.8-0.1,2.8  c0.1,1,0.8,1.4,1.9,1.3c0.3,0,0.6,0.3,1,0.4c0.6,0.2,1.2,0.4,1.9,0.4c0.1,0,0.3-0.8,0.4-1.2c0-0.2,0-0.3,0-0.5  c0-2.3-0.1-4.6-1.5-6.7c-1-1.4-1.5-3-1.4-4.8C49,11.5,48.4,10.7,48.1,10z M34.5,10.8c-1,4.5,0.5,10.5,2.8,11.9  c-0.7-2-0.4-3.9-0.2-5.8c-0.5,0.6-0.5,0.6-1.3,0c-1.1,0.9,0.1,1.6,0.3,2.5c-1.1-0.3-1.5-2-1-2.6c-0.1-1.1-0.6-2.2-0.3-2.9  C35.3,12.7,35,12,34.5,10.8z"/><path d="M40.9,34.9c-0.3-0.7-0.5-1.1-0.9-1.9c1,0.5,1.8,0.9,2.2,1.1c0.3,1.3,0.6,2.3,0.9,3.4c0,0-0.1,0.1-0.3,0.2  c1,0.8,2.1,1.6,3,2.4c0.4,0.3,0.5,1,0.7,1.4c-0.1,0.1-0.1,0.2-0.2,0.2c-0.6-0.3-1.2-0.6-1.8-0.9c0-0.1,0.1-0.2,0.1-0.3  c0.2,0,0.4,0,0.8-0.1c-0.8-0.4-1.3-0.7-1.9-0.9c-1.1-0.3-1.6-1.4-1.6-2.2c0-1.2-0.9-1.4-1.5-1.9c-0.4-0.3-1-0.4-1.5-0.6  c-0.3-0.2-0.5-0.5-0.9-0.8c-0.3,0.3-0.6,0.6-0.8,0.7c-0.6-0.3-1.1-0.5-1.6-0.9c-0.2-0.1-0.3-0.4-0.4-0.6c-0.4-0.9-0.8-0.7-1.7-1.1  c-0.8-0.3-2,0.1-2.5-1c-0.2-0.4-0.8-0.5-1.3-0.7c-0.5-0.3-1-0.5-1.6-0.7c-0.1,0.3-0.2,0.6-0.3,1c-0.8-1.1-2.6,0.3-3.2-1.7  c-0.3,1.7-0.9,1.3-1.6,0.4c-0.2,0.5-0.4,0.9-0.6,1.2c-1.1-0.4-1.9,0.2-2.6,0.8c-0.1,0.1-0.3,0.4-0.4,0.4c-1.8,0.1-2.9,1.3-4.1,2.4  c-0.5,0.5-0.7,1.3-1.2,1.9c-0.4,0.5-0.8,0.9-1.3,1.3c-1.2,1-1.9,2.4-2.2,3.9c-0.5,2.4-1.9,4.3-3.4,6.1c-1.2,1.4-1.6,3-1.3,4.8  c0.1,0.8,0.4,1.8,1.3,2.2c0.1,0.1,0.1,0.4,0.1,0.6c0,0.4,0.1,0.7,0.1,1.3c0.3-0.9,0.5-1.5,0.7-2.1c0.1,0,0.2,0.1,0.3,0.1  c-0.1,0.7-0.1,1.3-0.2,2c0.1,0,0.2,0.1,0.2,0.1c0.2-0.3,0.4-0.7,0.8-1.3c0.1,0.7,0.1,1.1,0.1,1.5c0.2-0.1,0.4-0.2,0.6-0.2  c0.5,0.9,0.8,1.9,2,2.3c-0.2,0.8,0.1,1.4,1.1,1.4c0.2-0.3,0.4-0.5,0.7-1c0.1,0.6,0.2,0.9,0.3,1.3c0.2-0.4,0.4-0.7,0.5-0.8  c0.5,0.3,0.8,0.5,1.1,0.8c0.2,0.2,0.3,0.5,0.2,0.7c0,0.2-0.4,0.2-0.7,0.4c1,1.7,0.6,4.3,2.9,5.5c0.1,0,0.2-0.1,0.3-0.1  c-0.1-0.5-0.2-1-0.3-1.5c0.1,0,0.2-0.1,0.3-0.1c0.2,0.2,0.3,0.4,0.5,0.6c0.4,0.5,0.9,1,1.3,1.5c0.2,0.3,0.3,0.7,0.4,1.1  c-0.3,0-0.7,0.1-1,0c-0.6-0.1-1.1-0.4-1.6-0.6c-2-0.7-2.6-2.4-2.9-4.2c-0.2-1.4-1-2-2.1-2.3C11.2,61,9.6,60,8.4,58.3  c-0.6-0.9-1.5-1.5-2.2-2.4c-1.4-1.8-1.5-4-1-6.1c0.4-1.9,1.7-3.4,3-4.7c0.5-0.5,1-1.3,1-2c0-1.1,0.2-2,0.9-2.9  c0.8-1,1.4-2.1,2.1-3.2c0.1-0.1,0.2-0.1,0.2-0.2c0.1-0.6,0.1-0.6,0.6-0.6c0.2-0.4,0.2-1.1,0.5-1.2c1.2-0.5,1.5-1.9,2.5-2.5  c1.5-0.9,2.7-2.1,4.2-3c0.5-0.3,1.2-0.2,1.8-0.3c1.5-0.5,2.8-0.5,4,0.8c0,0.1,0.2,0,0.5,0c-0.3-0.3-0.5-0.5-0.7-0.8c1.1,0,2,0,3,0  c0.2,0,0.4,0.1,0.6,0.2c2.6,1,5.1,2.3,7.6,3.6c0.6,0.3,1.2,0.9,2.1,0.8C39.5,33.6,40.1,34.3,40.9,34.9z"/><path d="M47,69.2c0,1.3-0.3,1.5-1.6,1.1c-1-0.3-2-0.6-3.1-0.9c0,0.2,0,0.6-0.2,0.9c-0.1,0.2-0.5,0.3-0.7,0.5  c-0.1-0.2-0.3-0.4-0.3-0.6c0.1-0.9-0.3-1.6-1-2.1c-0.2-0.1-0.4-0.3-0.6-0.4C38,67,38.1,66,38.4,64.8c0.3-1.4,0.8-2.8,0.9-4.2  c0.1-1.1-0.2-2.1-0.4-3.2c-0.1-0.7-0.2-1.5-0.4-2.5c0.8,0.8,1.5,1.5,2.2,2.2c0.1,0,0.1,0,0.2,0c-0.4-0.9-0.8-1.9-1.1-2.8  c0.1,0,0.1-0.1,0.2-0.1c0.4,0.6,0.8,1.3,1.4,2.1c0-0.5,0.1-0.9,0.1-1.2c0.4,1.2,1.5,2,1.3,3.5c-0.2,1.7,0,3.4-0.1,5.1  c-0.1,1.1-0.4,2.2-0.6,3.4c-0.3,1.2,0.1,1.7,1.4,1.7c0-0.2,0-0.4,0-0.7c0-0.2,0-0.4,0.1-1c0.6,0.9,1.1,1.5,1.6,2.2  c0-0.9-0.4-1.6,0.5-2.2c-0.7-1.7,0.2-3.1,0.8-4.6c0.7-1.7,1.3-3.3,2-5.1c-1.9,0.1-3.2-1.5-3.1-3.3c0.4,0.6,0.6,1.3,1,1.7  c0.5,0.4,1.2,0.5,2,0.7c-0.2-0.6-0.3-0.9-0.4-1.4c0.3,0,0.5-0.1,0.7-0.1c-0.4-0.6-0.7-1.1-1-1.6c0.1,0,0.1-0.1,0.2-0.1  c0.7,0.8,1.5,1.6,2,2.1c-0.3,1.3-0.6,2.5-0.9,3.6c-0.4,1.4-0.7,2.8-1.2,4.2c-0.4,1.4-1,2.6-0.2,4.1C48.3,68.1,48,68.7,47,69.2z   M41.9,57.4c-0.4,0.4-0.7,0.6-1,1c-0.2,0.2-0.3,0.4-0.4,0.6c-0.3,1.9-0.5,3.8-0.8,5.6c-0.3,1.6,0,2.4,1.4,2.7  C41.9,64,42.2,60.7,41.9,57.4z"/><path d="M55,46.9c-0.2-1.9-2-1.3-2.9-2c0-0.1,0-0.2,0.1-0.3c0.7-0.2,1.4-0.4,2.3-0.7c-0.3-0.2-0.4-0.3-0.7-0.5  c2.1-1.4,4.1-2.8,6.1-4.1c0.5,1.4,2,1.7,3,0.6c0.5-0.6,0-0.7-0.5-0.9c-0.7-0.3-1.5-0.5-1.2-1.3c1.1-0.2,2.1-0.3,3.3-0.5  c-0.4-0.9-0.7-1.6-1-2.3c-0.7-1.6-1.2-3.1-2-4.7c-0.4-0.8-1-1.6-1.6-2.3c-0.2-0.3-0.7-0.3-1.1-0.5c-0.7-0.2-1.4-0.4-2-0.6  c-0.1,0-0.3-0.4-0.3-0.5c0.1-0.2,0.3-0.4,0.5-0.4c0.3,0,0.6,0.2,0.8,0.3c0.3,0.1,0.6,0.5,0.9,0.5c1.6-0.4,2.2,0.9,2.7,1.8  c1.3,2.5,2.6,5,3.7,7.6c0.5,1.1,0.6,2.4-0.5,3.4c-0.4,0.4-0.4,1.1-0.8,1.5c-0.9,1.1-2.1,1.7-3.5,1.9c-1.2,0.2-2.3,0.7-3.4,1.2  c-0.8,0.3-1.7,0.7-1.3,1.9c0.1,0.2-0.2,0.4-0.2,0.6C55.2,46.7,55.1,46.8,55,46.9z M61.1,41.6c-0.8-0.3-1.4-0.6-2.1-0.9  c-0.2-0.1-0.5-0.1-0.7,0.1c-1.2,0.8-2.4,1.7-3.6,2.6c0,0.1,0,0.2,0.1,0.3c0.4,0,0.8,0,1.1-0.1c1.5-0.6,2.8-1.9,4.6-1.7  C60.6,41.9,60.8,41.8,61.1,41.6z"/><path d="M49.6,33.7c0.4-0.2,0.5-0.2,0.8-0.3c-0.4-0.3-0.8-0.6-1.3-0.9c0.1-0.1,0.2-0.2,0.2-0.2c1,0.4,1.8,0.1,2.8-0.5  c2.8-1.7,4.2-1.1,5.3,2c0.3,1,0.8,1.9,1.3,3.1c-0.5,0-0.8,0-1.1-0.1c-0.6-0.1-1.2-0.2-1.9-0.3c-0.9-0.2-1.9-0.2-2.7-0.6  C51.8,35.5,50.8,34.6,49.6,33.7z M55,33.6c0.1,0,0.2,0,0.3-0.1c-0.1-0.6-0.2-1.2-0.2-1.8c-1.4,0-2.4,0.5-3.2,1.8  c0.7,0.5,1.4,1,2.4,1.6c0-0.9,0-1.5,0-2.2C54.5,33.2,54.7,33.4,55,33.6z"/><path d="M35.2,69.1c0.7,0.5,1.4,0.9,2.3,1.5c-0.2-0.8-0.4-1.3-0.5-1.8c0.1,0,0.2-0.1,0.2-0.1c0.9,0.8,1.2,2.3,2.8,2.7  c-0.3-0.6-0.6-1.1-0.8-1.6c-0.1-0.2,0.1-0.5,0.1-0.8c0.2,0.2,0.4,0.3,0.5,0.5c0.3,0.5,0.7,0.9,0.9,1.4c0.2,0.3,0.2,0.8,0.3,1.1  c-0.3,0.1-0.7,0.2-1,0.2c-1.6-0.2-3.1-0.8-4.3-1.9C35.5,70.1,35.4,69.5,35.2,69.1C35.3,69.1,35.2,69.1,35.2,69.1z"/><path d="M66.9,39.5c2.7,0.4,5.4,0.8,8,1.2c0,0.1,0,0.2,0,0.3c-3.1-0.4-6.1-0.8-9.2-1.1c-0.2-1.3,0.6-1.4,1.6-1.4  c2.6,0,5.2-0.1,7.9-0.1c0.2,0,0.4,0.1,0.6,0.2c-3-0.4-6-0.1-8.9,0.6C66.9,39.3,66.9,39.4,66.9,39.5z"/><path d="M59.7,38.6c-0.7,0.9-8.1,4.4-9.8,4.5C50.2,42.5,58.7,38.6,59.7,38.6z"/><path d="M76.6,36.3c-3.7,0.5-7.4,1-11,1.5c0-0.1-0.1-0.2-0.1-0.3c3.6-1.3,7.4-1.2,11.1-1.5"/><path d="M56,38.5c-1.8,0.6-3.6,1.3-5.4,1.9c0-0.1-0.1-0.2-0.1-0.3c1.7-1.1,3.5-1.7,5.4-1.9C55.9,38.3,55.9,38.4,56,38.5z"/><path d="M42.7,54.3c0.2,0.6,0.5,1.3,0.6,1.9c0.2,0.7,0.3,1.4,0.4,2.1C43.1,58,42.4,55.7,42.7,54.3z"/><path d="M44.1,54c0.7,1.4,1.4,2.7,2,3.9C45.5,57.9,44.1,55.5,44.1,54z"/><path d="M50.6,54.9c-0.4-0.9-0.7-1.6-1.1-2.4C50.6,52.6,51.1,53.2,50.6,54.9z"/><path d="M42.9,33.6c-0.9-0.3-1.7-0.6-2.6-0.9c0-0.1,0.1-0.3,0.1-0.4c0.9,0.2,1.9,0.2,2.6,0.9C43,33.4,43,33.5,42.9,33.6z"/><path d="M51.2,51.8c0.2,0.2,0.4,0.4,0.6,0.6c0.2,0.2,0.5,0.4,0.7,0.6c-0.3,0.2-0.6,0.4-1,0.6c-0.2-0.6-0.3-1.2-0.5-1.8  C51.1,51.9,51.2,51.8,51.2,51.8z"/><path d="M44.3,56.1c0.2,0.8,0.4,1.4,0.6,2.2C44,57.8,43.8,56.8,44.3,56.1z"/><path d="M52.3,49.7c0.7,0.6,1.2,1.1,1.7,1.6C53.2,51.5,52.5,51,52.3,49.7z"/><text x="0" y="95" fill="#000000" font-size="5px" font-weight="bold" font-family="'Helvetica Neue', Helvetica, Arial-Unicode, Arial, Sans-serif">Created by Francesco Cesqo Stefanini</text><text x="0" y="100" fill="#000000" font-size="5px" font-weight="bold" font-family="'Helvetica Neue', Helvetica, Arial-Unicode, Arial, Sans-serif">from the Noun Project</text></svg>