<svg xmlns="http://www.w3.org/2000/svg" xmlns:xlink="http://www.w3.org/1999/xlink" version="1.1" x="0px" y="0px" viewBox="0 0 1920 1350" enable-background="new 0 0 1920 1080" xml:space="preserve"><path d="M1198.205,535.95c0-9.223,5.562-17.14,13.511-20.617c-17.474-2.786-31.838,0.346-34.268,8.489  c-2.538,8.543,8.856,19.678,26.395,26.903C1200.376,546.75,1198.205,541.631,1198.205,535.95z"/><path d="M1240.174,524.75c1.912,3.316,3.089,7.106,3.089,11.2c0,9.806-6.307,18.058-15.044,21.157  c15.887,1.858,28.544-1.415,30.802-9.018C1261.169,540.853,1253.274,531.76,1240.174,524.75z"/><circle cx="1220.734" cy="535.95" r="5.627"/><path d="M1449.37,479.174c-2.333-1.847-5.724-1.469-7.593,0.842l-77.069,96.336c-2.732-4.298-5.551-8.683-8.435-13.122  l77.425-125.82c1.566-2.538,0.767-5.864-1.771-7.43c-2.495-1.555-5.854-0.778-7.43,1.771l-74.768,121.532  c-1.318-1.987-2.646-3.974-3.985-5.962l41.505-113.389c1.026-2.797-0.411-5.897-3.218-6.934c-2.808-1.004-5.908,0.421-6.934,3.218  l-38.858,106.175c-2.052-2.948-4.104-5.843-6.156-8.683l23.425-93.701c0.713-2.894-1.037-5.821-3.931-6.545  c-2.938-0.734-5.832,1.026-6.545,3.931l-21.265,85.072c-6.372-8.348-12.55-15.844-18.263-21.784  c-16.07-16.74-33.912-38.243-51.17-59.033c-13.014-15.682-25.326-30.499-36.72-43.232c9.515-18.857,20.714-48.6,12.528-72.835  c-4.828-14.299-15.962-24.808-32.173-30.38l-7.776-2.668l-41.062,59.875c-12.474-2.808-25.358-4.363-39.064-4.363  c-22.01,0-42.25,3.553-60.113,6.696c-21.935,3.845-40.068,6.426-50.749,2.495c-11.351-4.18-25.153-12.452-40.23-22.507  c45.274-16.384,90.752-38.47,95.774-58.59l4.676-18.684l-18.371,5.756c-37.746,11.826-91.163,28.145-128.822,38.945  c-42.217-29.452-88.668-59.162-134.903-65.621c-14.126-1.976-28.458-2.97-42.606-2.97c-57.445,0-110.905,15.941-154.613,46.084  c-59.551,41.061-125.593,110.246-101.974,206.679c2.927,11.956,5.411,23.425,7.776,34.366  c9.828,45.425,18.382,84.856,50.404,111.618c2.516,5.929,4.914,11.621,6.901,16.416c1.469,3.564,3.499,7.992,5.605,12.582  c2.516,5.497,6.458,14.094,7.949,18.5c-8.003,15.66-7.841,43.826-2.97,55.393c3.24,7.722,8.629,9.634,11.534,10.098  c14.202,2.182,20.542-6.307,23.954-14.234c0,0.032,0.011,0.065,0.022,0.097c2.959,11.966,7.031,28.35,22.367,29.722  c0.767,0.065,1.501,0.097,2.214,0.097c5.962,0,11.113-2.376,14.515-6.685c1.177-1.501,2.084-3.143,2.754-4.882  c6.156,4.849,13.489,6.761,19.85,3.856c5.432-2.473,9.169-6.005,11.102-10.53c8.813,3.758,18.652,0.486,22.766-8.726  c4.039-9.029,2.095-16.675-2.56-23.458c3.856-4.396,5.26-10.638,4.266-19.073c-0.842-7.096-6.923-12.312-18.673-18.868  c19.051,3.845,35.359,7.992,50.414,11.826c28.123,7.182,50.35,12.852,76.27,12.852c20.66,0,44.291,16.524,69.314,34.009  c26.698,18.662,54.281,37.724,83.527,40.565c15.109,10.379,33.178,22.615,45.986,30.737c7.538,4.774,17.96,16.751,27.162,27.302  c16.837,19.343,26.892,30.294,37.93,30.294c1.652,0,3.283-0.259,4.817-0.767c8.165-2.722,13.057-7.495,14.634-14.267  c1.674,1.339,3.618,3.11,5.119,4.471c6.372,5.81,14.31,13.057,24.613,13.057c2.819,0,5.583-0.551,8.24-1.631  c7.117-2.916,11.578-7.182,13.273-12.69c3.769,1.199,7.409,1.933,10.854,1.933c7.895,0,12.193-3.953,14.062-6.318  c4.86-6.156,4.892-11.664,4.072-15.206c-0.756-3.251-2.376-5.821-4.482-7.949c1.685-1.361,3.1-3.208,3.964-5.713  c3.348-9.655-5.692-16.783-9.104-19.462c-3.24-2.56-6.631-4.072-10.033-5.173c5.951,1.642,11.804,2.992,16.967,3.575  c-0.464,1.847-0.022,3.877,1.469,5.26c1.048,0.972,2.365,1.458,3.683,1.458c1.447,0,2.894-0.583,3.942-1.717l6.523-6.998  c1.501-0.767,2.894-1.652,4.05-2.808c1.814-1.814,2.83-3.618,3.553-5.346l86.627-92.902c2.678,0.4,5.26,0.745,7.862,1.091  l-79.812,153.36c-1.382,2.635-0.346,5.908,2.3,7.279c0.788,0.41,1.642,0.616,2.484,0.616c1.944,0,3.823-1.058,4.784-2.916  l81.68-156.956c2.646,0.281,5.173,0.497,7.657,0.691l-39.312,163.793c-0.691,2.894,1.102,5.81,3.996,6.512  c0.421,0.108,0.843,0.151,1.253,0.151c2.452,0,4.666-1.663,5.249-4.147l39.776-165.737c0.886,0.022,1.868,0.086,2.711,0.086  c11.664,0,19.127-1.577,24.149-5.098c3.899-2.732,10.93-5.616,18.349-8.662c18.112-7.43,38.632-15.833,44.237-33.232  c2.927-9.072,1.166-18.824-5.184-28.998l-5.087-8.154c-3.499-5.627-7.441-11.956-11.653-18.662l79.391-99.241  C1452.07,484.434,1451.702,481.043,1449.37,479.174z M1198.28,312.941c5.681,3.326,9.439,7.798,11.383,13.543  c4.687,13.813-1.037,33.188-8.046,48.978c-11.124-11.048-21.093-19.03-29.56-22.291c-0.367-0.14-0.745-0.227-1.102-0.367  L1198.28,312.941z M967.15,303.61c-3.002,1.177-6.145,2.743-9.407,3.964c-6.577,2.452-13.025,4.763-19.364,6.977  c-0.81-0.572-1.642-1.156-2.462-1.739C946.144,309.852,956.641,306.774,967.15,303.61z M613.892,744.163v-10.768  c0.011,0,0.032,0.011,0.054,0.011L613.892,744.163z M639.294,696.082l-6.491,8.456l1.112,5.054c0.637,2.894,1.62,5.584,2.711,8.089  c-2.03-2.678-3.834-5.238-4.838-6.664c-4.45-6.329-7.139-10.141-13.273-10.141l-5.303,0.043l-3.24,4.061  c-1.264,1.588-2.03,3.402-2.3,5.411c-1.944-5.962-4.644-11.318-9.482-14.591c-3.456-2.344-6.782-3.478-10.184-3.478  c-10.519,0-14.137,9.439-15.995,15.93c-0.14-9.32,1.177-20.844,4.644-25.693c5.13-7.193,1.231-15.692-8.186-36.245  c-0.227-0.486-0.421-0.94-0.648-1.415c12.236,5.141,26.622,9.245,43.513,12.247c0.637,0.994,1.22,2.106,1.901,3.013  c3.359,4.471,9.904,7.981,26.438,16.157c0.367,0.184,0.756,0.367,1.145,0.572l-5.054,14.116l5.573,4.892  c0.065,0.065,0.14,0.13,0.205,0.184L639.294,696.082z M1111.6,811.188c-0.691-0.13-1.382-0.194-2.117-0.194l-7.117,0.097  l-2.916,6.253c-1.123,2.441-2.333,7.333,2.279,12.787l1.858,2.16c0.356,0.41,0.756,0.875,1.177,1.372  c-2.398-1.663-5.378-4.396-7.117-5.983c-4.968-4.536-10.109-9.223-16.502-11.124c-4.806-1.426-8.23-2.052-11.081-2.052  c-5.638,0-8.953,2.516-10.746,4.644c-3.326,3.942-3.229,8.392-2.819,11.47c-5.249-4.374-13.662-14.018-19.613-20.866  c-10.649-12.247-21.676-24.905-31.871-31.374c-7.506-4.763-17.032-11.092-26.719-17.626c13.338-6.782,22.702-18.738,31.396-31.158  c20.207,25.294,51.829,59.908,70.124,68.342c5.497,2.538,10.649,3.91,15.487,4.806c2.668,1.858,5.81,3.1,9.742,3.1  c2.29,0,4.622-2.722,6.912-3.791l-1.523,5.26L1111.6,811.188z M1112.464,800.258c0.065-0.551,0.13-1.058,0.205-1.058  c0.032,0,0.076,0,0.108,0L1112.464,800.258z M1126.007,782.395c-0.043-0.562-0.022-1.123-0.097-1.674  c2.722,0.875,5.519,1.739,8.316,2.57C1131.407,782.741,1128.664,782.482,1126.007,782.395z M1136.656,751.237l-2.084,6.437  l3.542,4.255c-4.514-1.382-8.932-2.84-12.69-4.072c-10.649-3.51-15.12-4.936-18.824-4.936c-4.676,0-8.737,2.506-10.606,6.523  l-1.134,3.37c-1.566-1.663-3.359-3.121-5.454-4.244c-6.026-3.208-12.096-6.08-20.228-6.08c-2.938,0-6.145,0.54-9.536,1.339  c-4.266-4.374-8.586-8.996-12.83-13.716c-0.432-0.961-0.896-1.976-1.231-2.743c-3.402-7.668-5.486-12.161-8.284-15.271  c-4.115-4.579-6.642-11.07-8.284-18.144c7.646-8.467,16.708-15.757,28.804-20.207c0.81,22.302,5.227,43.556,21.373,51.008  c2.052,0.95,4.266,1.436,6.534,1.436c5.184,0,9.342-2.387,13.014-4.752c-0.529,5.108,2.192,8.942,3.92,10.832  c2.765,3.002,6.707,4.666,11.113,4.666c5.022,0,10.076-2.084,14.969-4.115c1.836-0.756,4.72-1.955,6.275-2.398  c3.24,1.48,6.545,2.624,9.806,3.553C1140.976,745.222,1138.157,747.241,1136.656,751.237z M1161.074,725.069  c-0.14,0.108-0.205,0.27-0.335,0.389c-5.94-1.188-12.496-2.549-17.788-5.184c-4.936-2.473-11.383-1.631-17.302,0.508  c-1.469-7.279-8.24-10.984-10.508-12.215c-3.1-1.685-6.415-2.549-9.85-2.549c-7.225,0-12.96,3.78-17.161,6.523  c-0.54,0.356-1.21,0.799-1.847,1.188c-5.411-5.508-6.804-22.151-6.955-37.422c27.724-9.245,52.445-16.47,67.144-16.47  c3.672,0,5.832,0.464,6.998,0.853c6.869,2.29,35.986,9.774,68.483,16.438L1161.074,725.069z M1177.015,763.927  c-1.069-1.404-2.333-2.657-3.758-3.758c6.318-1.987,11.394-5.152,13.327-11.081c0.81-2.484,2.009-8.996-4.514-15.52  c-2.236-2.246-5.033-3.715-8.176-4.849l62.035-48.816c5.551,1.058,11.113,2.084,16.61,3.024L1177.015,763.927z M1283.849,665.669  c-0.14-0.011-0.281-0.032-0.421-0.054l1.015-1.091L1283.849,665.669z M1317.977,665.896c-0.086,0.043-2.225,1.069-9.493,1.264  l0.108-0.432c0.691-2.894-1.102-5.81-3.996-6.512c-2.938-0.745-5.821,1.112-6.512,3.996l-0.648,2.7  c-0.626-0.032-1.339-0.108-1.976-0.162l3.283-6.307c1.382-2.635,0.346-5.908-2.3-7.279c-0.464-0.238-0.961-0.324-1.458-0.421  c0.994-2.074,0.659-4.601-1.112-6.253c-2.182-2.03-5.616-1.912-7.625,0.259l-15.962,17.129c-3.823-0.562-7.722-1.166-11.686-1.836  l23.684-18.63c2.344-1.847,2.743-5.227,0.896-7.582c-1.858-2.354-5.249-2.743-7.582-0.896l-31.255,24.592  c-37.876-7.063-76.421-16.816-84.002-19.332c-3.964-1.328-8.489-1.976-13.835-1.976c-21.589,0-55.566,11.113-94.468,24.527  c-29.268,10.098-44.129,31.525-57.251,50.447c-13.997,20.185-22.766,31.612-40.446,31.612l-1.609-0.032  c-24.559-0.95-50.922-19.375-76.41-37.184c-27.896-19.505-54.238-37.919-81.691-37.919c-23.209,0-44.269-5.378-70.924-12.182  c-24.678-6.307-55.393-14.148-96.595-19.634c-95.159-12.69-104.533-55.998-120.064-127.753c-2.408-11.113-4.936-22.766-7.906-34.927  c-20.693-84.467,39.301-146.556,93.258-183.773c40.079-27.648,89.305-42.26,142.344-42.26c13.154,0,26.482,0.929,39.625,2.765  c47.239,6.588,97.654,42.206,142.139,73.613c28.976,20.466,54,38.135,75.254,45.965c15.412,5.67,37.616,2.786,61.96-1.49  c16.978-2.981,36.234-6.361,56.376-6.361c19.559,0,37.292,3.164,54.227,9.677c15.023,5.778,46.04,43.146,73.408,76.118  c17.496,21.092,35.597,42.898,52.196,60.199c8.154,8.489,17.518,20.585,27.054,34.009l-3.845,15.39  c-0.713,2.894,1.037,5.821,3.931,6.545c0.443,0.108,0.875,0.162,1.307,0.162c2.43,0,4.633-1.631,5.238-4.093l1.555-6.221  c1.328,1.944,2.657,3.899,3.974,5.864l-3.326,9.083c-1.026,2.808,0.41,5.908,3.218,6.934c0.615,0.227,1.242,0.324,1.858,0.324  c2.203,0,4.277-1.361,5.076-3.542l0.583-1.598c0.238,0.356,0.475,0.724,0.702,1.08l-2.83,4.601c-1.566,2.527-0.767,5.864,1.771,7.43  c0.875,0.551,1.858,0.799,2.83,0.799c1.804,0,3.575-0.918,4.601-2.57l0.13-0.216c2.387,3.726,4.709,7.387,6.966,10.962  c-0.562,2.02,0.086,4.266,1.825,5.659c0.443,0.346,0.95,0.497,1.458,0.605c-2.03,4.223-3.985,9.85-6.102,17.366  c-2.938,10.422-6.08,25.034-6.08,34.787c0,0.529,0.097,0.907,0.119,1.415c-0.529,0.216-1.08,0.443-1.588,0.659  C1331.758,658.584,1323.658,661.91,1317.977,665.896z M1372.193,635.191c-0.94,2.927-3.899,5.735-7.873,8.359  c1.004-6.426,2.689-13.63,4.504-19.969l0.443,0.702C1372.085,628.798,1373.068,632.47,1372.193,635.191z"/><path d="M1054.565,499.457c-1.35-1.717-32.951-42.455-22.842-77.9c4.86-17.042,17.95-29.549,38.912-37.174  c19.904-7.225,35.143-5.897,45.317,3.92c20.93,20.185,7.258,66.755,4.298,75.881l-20.552-6.642  c5.443-16.902,9.601-45.662,1.253-53.698c-4.903-4.741-16.481-1.512-22.939,0.842c-14.256,5.184-22.604,12.625-25.51,22.756  c-5.897,20.596,11.761,49.334,19.062,58.676L1054.565,499.457z"/><text x="0" y="1095" fill="#000000" font-size="5px" font-weight="bold" font-family="'Helvetica Neue', Helvetica, Arial-Unicode, Arial, Sans-serif">Created by Stewart Lamb Cromar</text><text x="0" y="1100" fill="#000000" font-size="5px" font-weight="bold" font-family="'Helvetica Neue', Helvetica, Arial-Unicode, Arial, Sans-serif">from the Noun Project</text></svg>